<?xml version="1.0" encoding="UTF-8" standalone="no"?>
<!-- Created with Inkscape (http://www.inkscape.org/) -->
<svg id="svg2" xmlns:rdf="http://www.w3.org/1999/02/22-rdf-syntax-ns#" xmlns="http://www.w3.org/2000/svg" xml:space="preserve" height="121.51" viewBox="0 0 121.51 121.51" preserveAspectRatio="xMidYMid meet" width="121.51" version="1.1" xmlns:cc="http://creativecommons.org/ns#" xmlns:dc="http://purl.org/dc/elements/1.1/"><metadata id="metadata8"><rdf:RDF><cc:Work rdf:about=""><dc:format>image/svg+xml</dc:format><dc:type rdf:resource="http://purl.org/dc/dcmitype/StillImage"/><dc:title/></cc:Work></rdf:RDF></metadata><defs id="defs6"><clipPath id="clipPath16" clipPathUnits="userSpaceOnUse"><path id="path18" d="m0 841.89h595.28v-841.89h-595.28v841.89z"/></clipPath></defs><g id="g10" transform="matrix(1.25 0 0 -1.25 -36.404 998.17)"><g id="g12"><g id="g14" clip-path="url(#clipPath16)"><path id="path92" d="m126.33 714.2c0-7.106-5.764-12.87-12.87-12.87h-71.47c-7.108 0-12.868 5.764-12.868 12.87v71.469c0 7.106 5.76 12.869 12.868 12.869h71.47c7.106 0 12.87-5.763 12.87-12.869v-71.469z" fill="#7493cb"/><g fill="#fff" fill-rule="evenodd"><path id="path94" d="m64.142 760.92c-2.195 0.878-3.689-2.868-2.124-4.458 2.561-0.373 3.392 2.929 2.124 4.458m-1.275 1.275c4.865 0.932 3.475-7.272-0.214-7.221-4.019 0.061-2.958 6.61 0.214 7.221"/><path id="path96" d="m64.777 753.28c0.286-0.142 0.395-0.454 0.426-0.851-0.959-0.037-1.061-0.261-1.699 0.214 0.179 0.458 1.096 0.18 1.273 0.637"/><path id="path98" d="m64.142 747.55c-2.587-0.115-1.599-4.523 1.485-4.458 2.285 0.987 0.142 4.53-1.485 4.458m-1.275 1.061c4.401 1.624 7.159-6.153 2.972-6.794-3.133-0.478-6.969 5.32-2.972 6.794"/><path id="path100" d="m74.967 743.73c0.305-0.118 0.519-0.332 0.637-0.637 2.048 0.003 3.043 1.061 2.974 3.183-1.546 1.567-4.084-0.111-3.611-2.546m1.91 4.459c4.827 0.559 3.013-7.425-1.486-6.371-3.265 0.77-1.753 5.994 1.486 6.371"/><path id="path102" d="m80.275 758.17c0.012 0.006-1.9-1.604-1.487-3.398-0.444 0.19-0.075 1.197-0.636 1.275 0.531 0.885 0.89 1.939 2.123 2.123"/><path id="path104" d="m69.66 742.24c-0.809-1.17-1.836-2.122-3.609-2.333-2.875-1.858-3.74-10.075 0.424-10.191 0.91-0.024 2.244 1.346 2.759 2.122 1.411 2.119 2.185 5.557 2.762 8.28-0.806 0.684-1.413 1.563-2.336 2.122m12.101 0.637c-0.013 0.129-0.032 0.251-0.213 0.214-1.744-1.977-4.481-3.953-8.279-3.184-0.309-1.247-0.465-2.647-0.848-3.821 3.028-5.153 4.96-11.812 10.826-14.012 2.668 5.76 0.601 15.789-1.486 20.803m-23.138 0.851c-0.685-0.308-1.784-0.2-2.762-0.213-5.055-7.184-10.203-14.28-12.526-24.201 3.925 1.74 6.606 5.33 9.766 8.493 3.809 3.808 8.83 7.083 11.251 11.887-3.123 0.132-4.225 2.285-5.729 4.034m35.662 1.699c-2.868-1.892-9.181-2.417-12.1-0.214-0.02-1.01 0.709-1.271 0.85-2.122 7.636 1.061 14.383-1.176 19.106-2.973-1.734 2.654-4.799 3.976-7.856 5.309m-21.864 1.912c-0.766-1.227-1.939-2.041-1.488-4.034 1.064-4.703 10.408-1.652 10.191 2.759-0.071 1.428-1.78 3.472-4.672 2.76-1.205-0.634-2.448-1.231-4.031-1.485m-7.218 3.818c-7.408 0.081-6.46-11.155 0.424-10.188 2.634 0.369 4.267 2.644 4.033 6.37-1.623 1.136-3.187 2.332-4.457 3.818m20.591 0.637c-0.696-1.851-2.053-3.041-4.033-3.607 0.968-3.862 7.627-3.628 11.039-2.123-0.381 3.865-3.731 4.76-7.006 5.73m-30.145 1.275c-3.455 0.18-9.493 0.034-9.764-2.123-0.177-1.397 2.57-3.299 3.821-4.034 2.765-1.627 5.738-2.465 8.917-1.909-0.312 3.773 1.757 5.174 3.395 7.004-2.031 0.377-3.79 0.93-6.369 1.062m7.855-0.424c0.638-0.475 0.74-0.251 1.699-0.214-0.031 0.397-0.14 0.709-0.426 0.851-0.177-0.457-1.094-0.179-1.273-0.637m14.86-1.699c1.775-3.183 7.054-0.42 6.367 2.547-0.423-2.997-5.648-2.577-5.943 0.213 0.126-1.186-0.486-1.638-0.424-2.76m3.397 1.699c2.123-0.112 2.864 3.441 1.062 4.668-3.691 0.526-3.384-4.549-1.062-4.668m-3.609 3.397c0.561-0.078 0.192-1.085 0.636-1.275-0.413 1.794 1.499 3.404 1.487 3.398-1.233-0.184-1.592-1.238-2.123-2.123m-11.888-2.336c0-6.832 11.522-6.526 11.251 0.213-0.137 3.381-3.741 5.279-7.218 4.455-2.402-0.565-4.033-2.119-4.033-4.668m-12.525 4.248c-4.996 1.573-13.57 0.899-15.923-2.549 2.138 0.037 3.2 1.105 4.884 1.271 3.548 0.353 6.348-1.821 9.765-2.333 2.185-0.328 4.174 0.302 6.368-0.424-0.658 1.672-2.797 3.309-5.094 4.035m13.586 1.485c0.156 2.156-1.322 4.333-2.76 4.669-7.246 1.691-7.252-13.26 0.212-9.554 0.556 1.973 2.413 3.017 2.548 4.885m5.73 4.031c0.341-1.244 3.034-1.949 3.397-0.213-0.478 1.152-2.97 1.895-3.397 0.213m11.466-4.244c1.009-1.597 2.374-3.533 1.699-6.157 1.376-0.465 2.882-0.797 4.031-1.486 6.923 4.049 15.06 6.876 18.894 14.01-10.103-0.227-16.089-4.574-24.624-6.367m-13.163 0.847c0.838-0.081 2.928-0.369 4.033-0.847 1.322 0.593 3.123 1.827 2.336 3.82-1.773-6.065-10.062 2.275-2.972 2.971-4.7 1.86-7.528-4.377-3.397-5.944m9.342-0.21c2.18 0.359 3.618 0.22 5.094 0.847 2.575 1.316 2.355 8.388-2.124 5.944-1.604-3.072-5.211-5.252-6.155-8.28 1.32 0.062 1.836 1.265 3.185 1.489m2.97 9.34c0.817 1.234 4.53 4.838 4.672 6.157 0.207 1.926-1.346 3.031-3.183 2.546-4.018-1.054-9.059-7.072-11.041-10.615 2.571-0.4 4.358-1.583 4.883-4.034 2.252 1.291 3.013 3.444 4.669 5.946m-40.545 9.554c-0.293 0.007-0.468-0.101-0.637-0.214v-0.426c0.715-3.265 2.614-6.337 4.67-9.551 3.023-4.726 5.216-9.649 10.613-11.039-0.257 4.577 1.924 6.709 4.882 8.066-5.529 5.366-11.735 10.059-19.528 13.164m26.96 2.757c-0.342 1.763-2.086 10.103-4.246 7.007-3.084-4.42 1.598-17.297 0.636-23.99 0.528-0.607 0.979-1.284 1.488-1.908-0.237 2.993 1.83 3.689 3.395 4.882 0.032 5.468-0.276 8.862-1.273 14.009m-2.122 8.916c3.931-5.194 4.458-13.799 4.668-22.712 1.292 2.38 3.37 4.71 5.947 7.005 2.265 2.017 5.875 5.726 9.127 4.458 1.383-0.542 2.427-2.746 1.91-4.672-0.568-2.112-4.436-3.655-4.67-5.943 3.561 0.237 4.757-4.079 3.183-7.008 7.056 2.007 13.397 5.848 22.504 5.096-0.785-4.974-5.252-7.699-9.129-10.188-3.198-2.055-6.573-4.028-9.764-5.52 0.297-0.98 2.234-2.149 2.333-4.034 3.705-1.875 10.561-3.553 8.706-8.917-4.838 2.756-11.276 4.733-19.108 3.821 1.255-3.339 1.668-7.228 1.913-12.1 0.144-2.895 0.586-8.218-1.913-8.917-1.425-0.396-3.031 0.617-3.821 1.275-3.376 2.821-5.719 8.09-7.853 12.1-1.735-1.952-2.355-5.753-5.521-5.729-2.377 0.013-3.967 2.664-4.246 5.729-4.553-3.692-9.377-8.408-14.01-12.947-1.476-1.448-3.148-3.672-5.731-2.974-0.705 5.269 2.315 9.829 4.458 13.799 2.224 4.13 4.726 8.198 7.429 11.676-4.968 0.312-15.634 8.914-5.095 10.191-3.626 3.14-8.94-0.274-12.949 0.635 0.722 5.953 9.376 5.424 15.284 4.885-2.814 4.628-6.652 9.334-9.127 14.86-0.722 1.607-2.185 3.906-0.425 5.73 5.219-0.661 9.128-3.719 12.737-6.157 3.707-2.502 7.052-5.411 9.977-8.703 1.087 5.17-1.527 14.378-1.061 20.379 0.195 2.526 0.731 5.55 4.247 4.882"/></g></g></g></g></svg>
