<?xml version="1.0" encoding="UTF-8" standalone="no"?>
<svg id="svg4513" xmlns:rdf="http://www.w3.org/1999/02/22-rdf-syntax-ns#" xmlns="http://www.w3.org/2000/svg" viewBox="0 0 8071.6535 8071.6535" preserveAspectRatio="xMidYMid meet" height="2278mm" width="2278mm" version="1.1" xmlns:cc="http://creativecommons.org/ns#" xmlns:dc="http://purl.org/dc/elements/1.1/">
 <metadata id="metadata4518">
  <rdf:RDF>
   <cc:Work rdf:about="">
    <dc:format>image/svg+xml</dc:format>
    <dc:type rdf:resource="http://purl.org/dc/dcmitype/StillImage"/>
    <dc:title/>
   </cc:Work>
  </rdf:RDF>
 </metadata>
 <g id="layer1" transform="translate(3386.5 3562.3)">
  <g id="g4477" transform="translate(-3541.7 17255)">
   <g id="text3430-4-3-6">
    <path id="path4143" d="m1547.3-14729q0 12.366-6.6584 22.829-6.6585 9.512-3.8049 22.829-3.8048 6.659-10.463 10.463-5.7073 3.805-3.8049 14.268-19.975 10.464-37.097 26.634-16.17 15.22-35.195 29.488-11.414 8.561-19.975 12.365-7.6096 2.854-19.024 9.512l-23.78 15.22q-16.17 8.561-33.292 17.121-16.17 8.561-29.487 21.878-19.975 0.951-40.902 10.464-20.927 10.463-39.951 18.072-7.6097 2.854-15.219 3.805-7.6097 1.903-15.219 5.708l-15.219 6.658q-13.317 6.658-31.39 13.317-18.073 7.61-32.341 7.61-8.5608 3.804-14.268 13.316-31.39 10.464-64.682 16.171t-64.682 18.073q-10.463 4.756-21.878 12.366-10.463 8.561-22.829 7.609-2.8536 4.756-3.8048 11.415-0.95121 6.658-2.8536 13.317h-2.8536q-3.8048 0-3.8048-3.805 0.9512-3.805-2.8536-3.805-2.8536 0-3.8048 0.951-12.366 2.854-23.78 4.756-10.463 1.903-23.78 1.903-7.6097 0-24.731-1.903-16.171-1.902-23.78-4.756-5.7072-2.853-9.5121-10.463-3.8048-7.61-7.6097-16.171-2.8536-8.56-5.7072-18.073-1.9024-8.56-3.8048-14.268 2.8536-10.463 9.5121-17.121 6.6584-6.659 10.463-17.122 8.5609-0.951 17.122-2.854 8.5609-1.902 17.122-0.951 29.487-8.561 58.975-17.122 30.439-7.609 59.926-16.17t58.024-19.024q28.536-10.464 55.17-25.683h19.975q17.122-9.512 38.048-16.17 20.927-6.659 34.244-21.878 31.39-6.659 65.633-18.073 34.244-11.415 57.072-36.146 14.268-1.902 24.731-6.658 10.463-5.708 19.975-11.415l19.024-12.366q9.5121-6.658 21.878-10.463 7.6097-7.61 14.268-16.17 6.6585-8.561 16.171-14.269-2.8537-15.219-15.219-22.829-12.366-7.609-21.878-18.072h-20.927q-24.731-15.22-53.268-22.829-27.585-8.561-55.17-18.073-1.9024-0.952-4.7561-0.952-6.6584 0-8.5608 4.756-0.9512 4.756-7.6097 3.805-8.5609-5.707-18.073-6.658-9.5121-1.903-19.975-1.903-13.317 0-26.634 1.903-12.366 0.951-25.683 0.951-6.6584 0-13.317-0.951-6.6584-0.951-13.317-4.756h-12.366q-19.975 0-39.951 1.902-19.024 0.951-38.048 0.951-10.463 0-19.975 0-9.5121-0.951-19.024-2.853-19.975 9.512-42.804 13.317-22.829 3.804-47.56 5.707-23.78 1.902-47.56 3.805-23.78 0.951-45.658 4.756-5.7072-0.951-11.414-0.951-4.756-0.952-9.5121-0.952-4.756 0-10.463 0.952-4.756 0-9.5121 0.951-12.366-13.317-30.439-19.024-17.122-6.659-34.243-8.561-13.317-16.171-19.975-32.341-5.7072-17.122-7.6097-38.049h3.8048q6.6584 0 5.7072-6.658 0-6.658 4.756-11.415 4.756-5.707 12.366-7.609 8.5609-2.854 16.171-5.707 7.6097-2.854 14.268-6.659 7.6097-4.756 11.414-14.268h12.366q3.8048 0 7.6097 0.951 4.756 0 7.6097 2.854 3.8048-3.805 9.5121-6.659 5.7072-2.853 10.463-5.707 5.7072-2.853 9.5121-6.658 3.8048-3.805 4.756-11.415 0.9512 2.854 4.756 2.854t6.6584-1.903q3.8048-1.902 8.5609-0.951 4.756-13.317 16.171-14.268 11.414-0.951 20.927-6.658 6.6584-3.805 12.366-8.561 5.7072-5.707 12.366-10.463l57.072-43.756 87.511-66.585q43.756-33.292 89.414-61.828 1.9024-5.707 5.7072-8.561 3.8049-2.854 7.6097-5.707 3.8048-3.805 5.7072-7.61 2.8537-3.805 1.9025-11.414 13.317-2.854 19.975-10.464 7.6097-7.609 13.317-16.17 5.7073-9.512 11.414-18.073 6.6585-9.512 17.122-14.268-0.9512-2.854-0.9512-8.561 0-7.61 0.9512-15.219 1.9025-7.61 7.6097-13.317-8.5609-19.976-29.487-28.536-20.927-9.513-39.951-16.171h-2.8537q-4.756 0-5.7072 4.756 0 3.805-4.756 5.707-15.219-3.805-34.244-3.805-19.024 0-38.048 2.854-18.073 2.854-37.097 0.951-2.8536 3.805-6.6584 7.61-2.8537 3.805-7.6097 6.658-19.975 0.952-39.951 5.708l-39.951 9.512-21.878 4.756q-4.756 1.902-6.6584 6.658t-2.8536 10.464q-5.7072-0.952-7.6097-4.757-0.95121-3.804-6.6584-5.707-21.878 13.317-47.56 21.878-24.731 8.561-44.707 26.634-6.6585-7.61-19.024-7.61-10.463 0-22.829 6.659-12.366 6.658-15.219 17.121-9.5121-1.902-14.268-1.902-10.463 0-18.073 5.707-6.6585 5.707-13.317 13.317-6.6584 6.659-14.268 13.317-7.6097 6.658-19.024 7.61 0 4.756 0 10.463 0.9512 4.756 0.9512 10.463 0 42.805-4.756 85.609-4.756 41.853-4.756 84.657 0 9.512 0.95121 19.024 0.9512 8.561 0.9512 19.025 0 2.853-4.756 12.365-3.8048 9.512-5.7072 14.268 3.8048 10.464 2.8536 20.927 0 10.463 4.756 19.975-8.5609 7.61-8.5609 20.927 0 5.707 0 11.414 0.9512 5.708 0.9512 11.415v11.414q-2.8536 19.024-3.8048 39-0.9512 19.024-0.9512 38.048 0 8.561 0 29.488 0.9512 19.975 2.8536 45.658 1.9024 24.731 5.7072 51.365t9.5121 49.462q6.6584 21.878 16.171 36.146 9.5121 14.268 22.829 14.268 2.8536 0 6.6584-0.951 4.756-0.951 4.756-4.756t-1.9024-6.658q-0.95121-2.854-0.95121-6.659l0.95121-1.902q7.6097 3.805 16.171 4.756 9.5121 0.951 19.024 1.902 9.5121 0.952 18.073 2.854 8.5609 2.854 15.219 10.463-3.8048 7.61-3.8048 16.171 0 11.414 5.7072 20.926 5.7072 10.464 7.6097 20.927-18.073 5.707-33.292 12.366-14.268 7.609-28.536 13.317-14.268 6.658-30.439 11.414-16.171 5.707-37.097 7.61-13.317-8.561-22.829-15.22-9.5121-6.658-25.683-8.561-24.731-33.292-40.902-75.145-16.171-40.902-25.683-85.609-8.5609-44.706-12.366-89.413-2.8536-45.658-2.8536-85.609 0-43.755 2.8536-86.56 3.8048-43.755 9.5121-87.511 1.9024-13.317 3.8048-26.633 1.9024-14.269 3.8048-27.585 1.9024-4.757 2.8536-10.464 1.9024-6.658 1.9024-11.414 0-16.171-0.95121-32.341-0.9512-16.171-0.9512-31.39 0-23.78 2.8536-48.512 0.9512-4.756 2.8536-12.365 2.8536-7.61 2.8536-13.317 0-7.61-3.8048-10.464-3.8048-2.853-6.6584-9.512 2.8536-9.512 4.756-18.073 1.9024-9.512 1.9024-19.024 0-18.073-6.6584-31.39 4.756-24.731 14.268-48.511 9.5121-23.78 33.292-36.146 19.024 0.951 38.048 3.805 19.975 2.853 34.243 16.17 6.6584-3.805 15.219-4.756l18.073-1.902q9.5121-0.951 17.122-2.854 7.6097-2.853 13.317-10.463 19.024-3.805 40.902-10.463 21.878-7.61 38.048-17.122h20.927q6.6584-4.756 15.219-6.659l18.073-4.756q9.5121-2.853 17.122-5.707 8.5609-2.853 13.317-9.512h3.8048q21.878 0 42.804-9.512 20.927-9.512 40.902-17.122 4.756-1.902 14.268-6.658 10.463-4.756 14.268-4.756 13.317-1.903 26.634-1.903 13.317-0.951 26.634-3.804 30.439-4.756 59.926-10.464 30.439-6.658 60.877-6.658 10.463 0 19.024 0.951 9.5121 0 19.975 0.951 0.9512 3.805 4.756 6.659 3.8049 1.902 6.6585 3.805 3.8048 1.902 6.6584 5.707 2.8537 2.853 1.9025 8.561 1.9024 1.902 3.8048 1.902 2.8536 0 4.756-2.854 2.8536-2.853 7.6097-2.853h4.756q12.366 13.317 23.78 25.682 12.366 11.415 30.439 19.025 7.6097 28.536 18.073 56.121t10.463 58.975q0 19.024-5.7073 37.097-13.317 6.658-19.024 20.926-5.7073 14.268-10.463 27.585-26.634 13.317-44.707 35.195t-37.097 43.756h-15.219q-3.8048 0-5.7072 2.853l-8.5609 9.512q-8.5608 7.61-19.024 15.22-9.5121 7.609-14.268 19.975-29.488 16.17-57.072 36.146-26.634 19.975-51.365 41.853-10.463 8.561-20.926 19.975-10.463 10.464-20.927 18.073-5.7072 4.756-13.317 8.561-6.6584 2.854-12.366 7.61-12.366 9.512-22.829 19.975-10.463 9.512-21.878 18.073 42.804-1.902 86.56-1.902 43.756-0.952 86.56-1.903 21.878 0 42.804-0.951 20.927-1.902 42.804-1.902 3.8048 0 6.6584 1.902 2.8536 0.951 6.6585 1.902 16.17 2.854 28.536 6.659 45.658 8.561 91.316 15.219 45.658 6.659 89.414 21.878 12.366 4.756 18.073 10.463 6.6585 5.707 22.829 2.854 13.317 13.317 28.536 20.926 16.17 7.61 32.341 13.317 12.366 19.024 22.829 36.146 11.414 17.122 11.414 40.902z"/>
    <path id="path4145" d="m2306.4-14637q-2.8536 13.317-12.366 21.878-8.5608 7.61-20.926 12.366-12.366 4.756-25.683 6.658-12.366 0.951-22.829 0.951-4.756 0-9.5121 0-3.8048-0.951-8.5608-0.951-4.7561 0-4.7561 4.756t-4.756 6.659q-4.756-1.903-9.5121-2.854-4.756-0.951-9.512-0.951-6.6585 0-13.317 0.951-5.7073 0.951-11.414 0.951-7.6097 0-11.414-1.902-2.8536-1.903-5.7073-3.805-1.9024-2.854-4.756-5.707-1.9024-2.854-6.6585-4.756-6.6584-2.854-11.414-0.952-3.8049 1.903-12.366-5.707-11.414-9.512-19.975-22.829-7.6097-14.268-15.219-29.487-7.6097-15.219-16.17-30.439-8.5609-15.219-19.975-26.634h-7.6097q-17.122 0-23.78 14.268-4.7561-2.853-9.5121-6.658-4.756-4.756-10.463-7.61-21.878 6.659-45.658 11.415t-47.56 4.756h-13.317q-5.7073 0-12.366-1.903-9.5121 3.805-17.122 9.513-7.6097 4.756-17.122 4.756-5.7072 0-13.317-3.805-5.7072 0-5.7072 4.756 0.9512 4.756-5.7073 4.756h-8.5608q-13.317 0-26.634 0.951-12.366 0.951-25.683 0.951-18.073 0-37.097-4.756-4.7561 2.854-10.463 2.854-3.8048 1.902-5.7072 6.658-1.9025 3.805-3.8049 7.61-1.9024 2.854-5.7072 5.707-2.8536 1.903-8.5609 0.951-1.9024 11.415-9.5121 18.073-7.6096 6.659-7.6096 19.976-10.463 5.707-17.122 14.268-6.6585 8.561-13.317 18.073t-14.268 18.073q-6.6584 8.561-17.122 13.317-4.756 5.707-2.8536 18.073-10.463 8.56-25.683 15.219-15.219 6.658-28.536 6.658-27.585 0-38.048-29.487 0-9.512 1.9024-19.975 0.9512-11.415 3.8048-20.927 2.8536-10.463 8.5609-18.073 5.7072-8.561 16.17-12.366 0-8.561-5.7072-11.414-5.7073-3.805-4.7561-12.366 25.683-12.366 44.707-32.341t34.243-41.853q16.171-22.829 32.341-45.658t36.146-40.902v-19.975q28.536-30.439 37.097-68.487 10.463-1.903 13.317-9.512 3.8048-7.61 3.8048-18.073 4.756 0 5.7072-3.805 1.9024-4.756 8.5609-2.854 8.5609-22.829 19.024-41.853t20.927-38.048q10.463-19.975 18.073-40.902 8.5609-20.927 12.366-46.609 13.317-0.951 14.268-12.366 1.9025-12.366 3.8049-21.878 14.268-13.317 20.926-31.389 7.6097-18.073 13.317-37.098 5.7073-19.975 12.366-38.999 7.6097-19.975 20.927-35.195v-2.853q0-4.756-3.8048-5.708-3.8049-1.902-3.8049-6.658 0.9512-0.951 0.9512-1.902 11.414-4.756 17.122-15.22 5.7072-11.414 17.122-16.17 19.975 16.17 35.195 19.975 15.219 2.854 39.951 4.756 12.366 13.317 13.317 32.341 1.9024 18.073 6.6584 36.146 7.6097 30.439 16.171 59.926 9.512 28.536 14.268 58.975 2.8536 18.073 10.463 34.243 7.6096 16.171 10.463 33.293 1.9025 13.317 0 30.438-1.9024 16.171 3.8049 28.537l6.6584 15.219q4.7561 10.463 7.6097 21.878 3.8048 11.414 6.6584 22.829 7.6097 28.536 13.317 61.828 6.6585 32.341 19.975 58.975 4.756 9.512 14.268 13.317 10.463 3.805 22.829 5.707 12.366 0.951 23.78 0.951 12.366-0.951 20.926-0.951h9.5121q5.7072 0 11.414 1.902 3.8048 7.61 3.8048 13.317 0 11.415-7.6096 18.073-7.6097 6.659-7.6097 15.22 0 4.756 3.8048 10.463-3.8048-0.951-11.414-0.951-21.878 0-42.804 7.609 7.6097 16.171 19.975 27.585 13.317 10.464 27.585 19.976 9.512-7.61 19.975-7.61 11.414 0 20.927 5.707 10.463 4.756 21.878 4.756 8.5608 0 12.366-2.853 7.6096 8.561 12.366 18.073 4.7561 8.561 12.366 16.17zm-297.73-152.19q-1.9024-16.17-6.6584-22.829-3.8048-7.61-6.6585-18.073-3.8048-13.317-5.7072-28.536-0.9512-15.219-3.8048-29.488-6.6585-32.341-15.219-64.682-7.6097-32.341-19.975-62.779 3.8048-5.708 3.8048-10.464v-2.853q-8.5608-9.512-12.366-22.829-3.8048-14.268-7.6096-27.585-2.8536-14.268-8.5609-25.683-4.756-12.365-16.17-19.975-2.8536 5.707-2.8536 13.317 0 6.658 0.9512 12.365 1.9024 5.708 1.9024 12.366-9.5121 4.756-14.268 15.219-3.8049 9.513-13.317 15.22-7.6097 30.438-21.878 58.023-14.268 26.634-30.439 53.268-15.219 26.634-29.488 54.219-14.268 26.634-22.829 56.121-12.366 8.561-17.122 21.878-3.8048 13.317-3.8048 26.634 8.5609 4.756 19.024 5.707 11.414 0 21.878 0 10.463 0 19.975 1.902 9.512 1.903 17.122 9.512 12.366-3.804 26.634-4.756 15.219-1.902 24.731-8.561 19.024 6.659 40.902 6.659 11.414 0 21.878-1.902 11.414-1.903 21.878-4.757 8.5608 1.903 13.317 6.659 4.756 3.805 14.268 2.854 4.756-3.805 5.7072-7.61 0.9512-4.756 4.756-8.561z"/>
    <path id="path4147" d="m3014.1-15238q0 8.561-3.8049 16.171l-6.6584 14.268q-2.8536 6.658-5.7072 14.268-2.8537 7.61-1.9025 18.073-13.317 15.219-26.634 29.487t-23.78 32.341q-10.463-0.951-16.17 4.756-4.756 5.708-7.6096 15.22-19.975 6.658-35.195 20.926-15.219 13.317-26.634 29.488-50.414 20.926-94.17 51.365t-79.902 71.34q17.122 0 33.292 3.805 17.122 3.805 33.292 8.561 17.122 3.805 33.292 7.61 16.17 2.853 33.292 0.951 12.366 11.414 27.585 19.024 16.17 7.61 31.39 14.268 16.171 6.659 30.439 15.22 15.219 8.56 26.634 20.926 0 1.903-0.9512 3.805 0 0.951 0 2.854 0 7.609 3.8048 15.219 3.8048 6.658 3.8048 14.268-4.756 7.61-8.5608 16.171-3.8049 8.56-9.5121 15.219-4.7561 6.658-11.414 11.414-6.6585 4.756-18.073 5.708-4.7561 16.17-15.219 25.682-10.463 8.561-23.78 16.171-12.366 6.658-24.731 14.268-12.366 6.658-20.927 18.073-28.536 6.658-56.121 19.024-26.634 11.414-47.56 33.292-14.268 1.903-29.487 4.756-14.268 1.903-28.536 1.903-19.975 0-32.341-7.61-12.366-8.561-14.268-30.439 2.8536-6.658 8.5609-11.414l12.366-9.512q6.6584-4.756 11.414-9.512 5.7073-5.708 8.5609-13.317 1.9024 0 4.756 0.951 2.8537 0 5.7073 0 11.414 0 18.073-4.756 6.6585-4.756 12.366-9.512 6.6585-4.756 14.268-8.561 7.6097-3.805 19.975-2.854 6.6584-12.365 19.975-18.073 13.317-6.658 27.585-11.414 14.268-5.707 26.634-12.366 13.317-7.609 18.073-21.878-4.756-7.609-12.366-11.414-7.6097-4.756-17.122-7.61l-18.073-5.707q-8.5608-2.854-15.219-6.658-10.463 2.853-19.975 2.853-19.975 0-39-3.805-19.024-3.804-39-3.804-18.073 0-31.39 4.756-4.756-0.952-10.463-2.854-4.756-1.902-9.512-3.805-21.878 8.561-45.658 8.561h-61.828q-7.6096 0-15.219 1.902-10.463 19.025-10.463 40.902 0 16.171 4.7561 31.39 4.756 14.268 9.512 30.439 19.024 17.122 35.195 40.902 16.17 22.829 16.17 50.414 0 6.658-0.9512 10.463-9.512-6.658-24.731-6.658-13.317 0-25.683 3.804-11.414 3.805-24.731 5.708-10.463-4.756-21.878-9.512-11.414-5.708-21.878-13.317-7.6096-16.171-15.219-30.439-7.6097-15.219-19.024-28.536v-3.805q0-33.292-5.7073-65.633-4.756-32.341-4.756-65.634 0-15.219 0.9512-30.438 1.9024-16.171 9.5121-29.488-2.8537-22.829-2.8537-47.56 0-49.463 5.7073-98.926 5.7072-49.462 5.7072-100.83 0-10.463-0.9512-20.926 0-10.463-0.9512-20.927h-3.8048q-12.366 0-23.78 3.805-11.414 2.854-22.829 6.659-11.414 3.804-23.78 7.609-12.366 2.854-24.731 2.854-7.6096 3.805-12.366 7.61-4.756 3.804-9.512 6.658-4.7561 2.854-10.463 4.756-6.6585 1.902-15.219 0.951-10.463 6.659-16.171 10.464-6.6584 2.853-18.073 6.658-5.7072 1.902-9.5121 5.707l-7.6096 6.659q-3.8049 2.853-8.5609 5.707t-12.366 2.854q-6.6584 0-9.5121-0.952-5.7072-4.756-9.512-11.414-4.7561-6.659-8.5609-12.366-4.756-6.658-9.5121-11.414-5.7072-5.708-13.317-8.561 3.8049-4.756 3.8049-7.61-0.9513-3.805-0.9513-8.561 0-2.853 0.9513-3.805 4.756-17.121 17.122-26.633 12.366-10.464 27.585-16.171 15.219-6.658 31.39-11.414 15.219-4.756 28.536-11.415 37.097 0.951 67.536-6.658 30.439-8.561 62.78-23.781 5.7072 2.854 11.414 2.854 4.756 0 9.512-0.951l9.5121-1.903q11.414-9.512 24.731-12.365 13.317-2.854 26.634-4.756 13.317-1.903 25.683-3.805 12.366-2.854 21.878-10.463h3.8048q22.829 0 45.658-7.61 23.78-7.61 45.658-5.707 19.024-10.464 35.195-13.317 16.17-2.854 37.097-2.854 4.756 0 11.414-3.805 6.6585-4.756 16.171-4.756 1.9024 0 2.8536 0.952 1.9024 0 3.8048 0 8.5609 0 11.414-5.708 3.8048-5.707 18.073-5.707 6.6585 0 12.366 0.951 5.7073 0 11.414 0 6.6585 0 8.5609-4.756 1.9024-5.707 8.5609-4.756 2.8536 3.805 9.512 3.805 6.6585-0.951 10.463-0.951 6.6585 0 7.6097 3.805 15.219-9.512 33.292-12.366 19.024-2.854 36.146-2.854 6.6585 0 13.317 0.952 6.6585 0 14.268 0.951 8.5609-5.707 19.975-5.707 6.6584 0 20.926 5.707 15.219 5.707 31.39 13.317 16.17 7.609 29.487 16.17t16.17 14.268q1.9025 1.903 1.9025 8.561 0.9512 6.659 2.8536 11.415 4.756 11.414 8.5608 21.877 4.7561 9.512 4.7561 21.878zm-105.58 10.463q0-1.902-0.9512-3.804 0-2.854 0-4.756-4.7561-5.708-13.317-8.561-7.6097-2.854-17.122-4.756-8.5608-1.903-18.073-2.854-8.5609-1.902-15.219-4.756-19.975 6.658-43.756 6.658-21.878 0-39-6.658-8.5608 8.561-21.878 13.317t-28.536 7.61q-14.268 1.902-29.487 2.853-14.268 0-25.683 0-3.8048 0-13.317 5.707-9.5121 5.708-17.122 5.708-5.7073 0-10.463-4.756-8.5609 6.658-23.78 11.414t-31.39 8.561q-16.171 2.854-33.292 6.658-16.17 3.805-27.585 7.61-11.414 24.732-12.366 54.219-0.9512 28.536-0.9512 56.121 0 16.171-1.9024 31.39t-1.9024 31.39q0 7.61 0.9512 16.17 0.9512 7.61 5.7072 15.22-7.6096 5.707-10.463 15.219-1.9024 8.561-1.9024 17.122 0 10.463 1.9024 19.024 1.9025 8.561 3.8049 16.17 30.439-2.853 55.17-11.414 25.683-8.561 47.56-20.927 22.829-12.365 43.756-28.536 20.927-16.17 43.756-34.243 9.5121-1.903 15.219-5.708 6.6584-3.804 16.17-3.804 3.8048-13.317 14.268-18.073 10.463-5.708 16.17-16.171 11.414-2.853 19.024-7.61 8.5608-5.707 16.17-10.463 7.6096-5.707 16.17-10.463 9.5121-4.756 20.927-5.707 16.17-19.024 33.292-38.049 18.073-19.024 41.853-30.438 3.8049-9.512 8.5609-16.171 4.7561-7.609 8.5609-14.268 4.756-7.61 7.6096-15.219 2.8537-8.561 2.8537-19.976z"/>
    <path id="path4149" d="m3627.6-15172v3.805q-6.6585 1.903-6.6585 9.512-10.463 4.756-21.878 7.61-11.414 1.902-21.878 6.658-10.463-0.951-21.878-0.951-10.463-0.951-20.926-0.951-28.536 0-57.072 1.902-28.536 1.903-57.072 0-13.317 7.61-29.487 12.366-15.219 3.805-29.488 3.805-11.414 0-19.975-2.854-22.829 11.415-50.414 19.025-26.634 7.609-54.219 15.219-27.585 6.658-53.268 16.17-24.731 8.561-43.756 24.732-1.9024 13.317-2.8536 26.634-0.9512 12.365-0.9512 24.731 0 13.317 0.9512 24.731 1.9024 11.415 6.6585 22.829 4.756 1.903 10.463 2.854 6.6585 0.951 11.414 0.951 4.7561 0 9.5121-0.951 4.756-1.902 6.6584-6.658 14.268-1.903 28.536-0.952 14.268 0 28.536 0t27.585-0.951q14.268-0.951 27.585-4.756 15.219-3.805 29.487-4.756 15.219-0.951 29.488-1.902 14.268-0.952 29.487-2.854 15.219-2.854 31.39-10.463 12.366 4.756 24.731 4.756 13.317 0 25.683 1.902 6.6585 4.756 10.463 10.463 4.756 5.708 4.756 13.317 0 13.317-9.512 26.634-9.5121 13.317-15.219 24.732h-10.463q-22.829 0-44.707 6.658-20.926 5.707-42.804 14.268-20.927 7.61-42.804 14.268-20.927 5.707-43.756 5.707-3.8048 0-4.756 4.756 0 3.805-1.9024 5.708-4.7561-0.951-14.268-0.951-21.878 0-41.853 4.756t-40.902 4.756q-5.7072 0-11.414 0-5.7072-0.952-11.414-1.903-4.7561 7.61-12.366 10.463-7.6097 1.903-14.268 7.61-2.8536 8.561-3.8048 20.927 0 12.365-0.9512 25.682 0 12.366-1.9024 23.78-1.9024 11.415-7.6097 18.073 0.9512 4.756 7.6097 3.805 6.6584-1.902 6.6584 5.707 0 8.561-1.9024 18.073t-1.9024 19.025q0 18.073 3.8048 39.95 4.7561 20.927 13.317 39 9.5121 18.073 24.731 30.438 15.219 11.415 38.048 11.415 15.219 0 28.536-5.707 13.317-5.708 21.878-19.024l4.7561-0.952q3.8048 0 6.6584 0.952 3.8048 0.951 7.6097 0.951 5.7072 0 14.268-6.659 9.5121-7.609 19.975-17.121 11.414-9.513 22.829-18.073 11.414-9.512 21.878-13.317 6.6584-13.317 12.366-26.634 6.6584-13.317 19.024-20.927v-27.585q9.5121-10.463 19.975-19.024 11.414-8.561 17.122-21.878 4.756 1.903 8.5609 2.854 4.756 0.951 9.512 0.951 4.7561 0 9.5121-0.951 5.7073-0.951 10.463-2.854 7.6097 10.464 11.414 23.781 4.756 12.365 11.414 23.78-8.5609 17.121-19.975 40.902-11.414 23.78-24.731 47.56t-28.536 45.658q-14.268 20.927-28.536 32.341-2.8536 2.854-12.366 6.658-10.463 7.61-19.024 14.269-8.5608 7.609-16.17 17.121-27.585 8.561-53.268 22.829-24.731 14.268-49.463 27.585-11.414-2.853-24.731-2.853-11.414 0-22.829 0.951-11.414 1.902-24.731 1.902-3.8049-4.756-11.414-6.658-6.6585-0.951-4.7561-9.512-32.341-1.903-52.316-18.073-19.975-15.219-34.243-38.048-13.317-22.829-21.878-49.463-8.5609-26.634-18.073-51.365v-2.854q0-4.756 3.8048-5.707t3.8048-5.708q0-1.902-0.9512-2.853-2.8536-10.463-4.756-18.073t-1.9024-18.073q0-15.219 1.9024-29.487 1.9024-15.22 1.9024-30.439t-3.8048-26.634q3.8048-4.756 6.6584-12.366 1.9024-8.56 2.8536-17.121 0.9513-8.561 0.9513-17.122 0.9512-8.561 2.8536-15.219-3.8049-10.464-6.6585-18.073-2.8536-8.561-2.8536-19.976v-6.658q9.5121-16.171 16.17-33.292 6.6585-17.122 14.268-35.195v-2.854q0-27.585-1.9024-55.17t-1.9024-55.17v-18.073q0-9.512 0.9512-18.073 7.6097-3.804 11.414-10.463 3.8048-6.658 11.414-10.463h31.39l5.7073-9.512q2.8536-4.756 3.8048-10.464 10.463-2.853 19.975-7.609 10.463-5.707 19.024-11.415 13.317-7.609 23.78-13.317 11.414-6.658 21.878-10.463 11.414-4.756 23.78-7.609 12.366-2.854 28.536-4.757 7.6096 0 9.512-2.853 2.8537-2.854 7.6097-6.659 11.414 1.903 22.829 3.805 11.414 0.951 22.829 0.951 22.829 0 42.804-8.56 28.536 0 56.121-0.952 28.536-0.951 57.072-0.951 24.731 0 49.463 1.903 24.731 1.902 48.512 6.658 8.5609-2.854 19.024-2.854 11.414 0 22.829 2.854 12.366 1.902 23.78 0 0.9512 10.463 4.756 18.073 4.7561 6.658 4.7561 16.17z"/>
    <path id="path4151" d="m4101.3-14812q0 10.463-7.6097 16.171-7.6097 4.756-7.6097 13.316 0 3.805 3.8049 9.513-13.317 0-18.073 8.56-4.756 8.561-9.512 19.025h-12.366q-4.7561 0-7.6097 1.902t-5.7072 5.707q-1.9024 2.854-5.7073 9.512-18.073 3.805-35.195 12.366-16.171 7.61-32.341 17.122-15.219 8.561-31.39 18.073-16.171 8.561-33.292 14.268-8.5609 14.268-24.731 22.829h-2.8536q-4.756 0.951-8.5609-0.951-2.8536-2.854-7.6096-2.854-2.8537 0-3.8049 0.951-28.536 19.024-63.731 19.024-9.512 0-18.073-0.951-8.5609-1.902-18.073-1.902-2.8537 0-3.8049 1.902l-1.9024 3.805q-0.9512 1.902-2.8536 3.805-0.9512 1.902-6.6585 1.902-10.463 0-20.926-2.853-10.463-2.854-21.878-0.952-21.878-12.365-34.243-23.78-12.366-11.414-22.829-34.243-4.7561-10.464-13.317-19.976-7.6097-9.512-11.414-20.926-0.9512-3.805-2.8536-13.317-1.9024-10.463-3.8049-21.878-1.9024-11.414-3.8048-21.878-0.9512-10.463-0.9512-14.268 0-11.414 0.9512-21.878 1.9024-11.414 3.8048-22.829 5.7073-36.145 7.6097-72.291 2.8536-37.097 16.17-71.341-1.9024-10.463-1.9024-19.975v-20.927q0-18.073-4.756-30.438 7.6096-12.366 7.6096-27.585 0-17.122-14.268-19.976v-2.853q0-19.976-13.317-31.39 0-33.292 16.17-49.463 17.122-17.122 44.707-29.487 3.8048-5.708 2.8536-9.513 6.6585 1.903 12.366 3.805 5.7072 1.903 11.414 1.903 9.5121 0 17.122-2.854 2.8536 11.415 14.268 14.268 12.366 1.903 19.975 5.707v12.366q0 29.488 14.268 56.121-3.8048 7.61-4.756 16.171t-0.9512 16.17q0 11.415 0.9512 22.829 0.9512 11.415 0.9512 21.878 0 11.415-2.8537 22.829-1.9024 11.415-10.463 19.976-0.9512 12.365-1.9025 28.536 0 15.219-1.9024 31.39-0.9512 16.17-4.756 31.389-3.8048 15.22-11.414 24.732-0.9512 14.268-1.9024 29.487 0 14.268 0 27.585 0 20.927 1.9024 49.463 2.8536 28.536 13.317 47.56 4.756 7.61 18.073 11.415 14.268 3.805 22.829 3.805 10.463 0 20.927-2.854 11.414-3.805 16.17-12.366 5.7073 0.952 7.6097 5.708t6.6584 7.609q54.219-22.829 108.44-43.755 54.219-20.927 106.54-48.512 7.6096 3.805 16.17 3.805 9.5121 0 19.024-1.902 9.512-1.903 19.024-1.903h6.6585q1.9024 5.707 1.9024 8.561z"/>
    <path id="path4153" d="m4597.8-14687q0 16.171-8.5609 28.536-7.6096 11.415-5.7072 28.537-13.317 7.609-21.878 19.975-8.5608 12.366-16.17 25.683-62.78 40.902-135.07 65.633-71.341 25.683-147.44 25.683-4.756 0-8.5608-4.757-3.8049-3.804-7.6097-8.56t-8.5609-9.512q-3.8048-3.805-9.512-3.805-6.6585 0-10.463 2.853 0-1.902 0-3.804 0.9512-0.952 0.9512-2.854 0-11.415-2.8536-23.78-2.8537-11.415-2.8537-22.829 0-13.317 4.7561-21.878h11.414q9.512 0 18.073-0.951 9.5121-1.903 19.975-1.903t19.024 5.708q52.316-1.903 98.926-19.025 47.56-18.073 96.072-35.194 7.6097-10.464 8.5609-22.829 1.9024-13.317 7.6096-24.732-24.731-20.926-50.414-32.341-24.731-12.365-58.024-8.561-19.975-12.365-42.804-14.268-21.878-1.902-44.707-5.707-5.7072-0.951-12.366-1.902-5.7072-1.903-12.366-1.903-4.756 0-9.512 2.854-3.8049 1.902-1.9025 6.658-4.756-7.609-13.317-8.56-7.6096-1.903-13.317-7.61-30.439-1.903-53.268-10.463-22.829-9.513-50.414-20.927-7.6096-2.854-15.219-3.805-6.6584-1.902-13.317-5.707-17.122-8.561-27.585-22.829t-16.17-31.39q-6.6585-18.073-9.5121-37.097t-5.7072-35.195q8.5608-15.219 16.17-31.389 6.6584-16.171 11.414-34.244 5.7072-2.854 11.414-4.756 5.7072-1.902 12.366-4.756-0.9512-1.902-0.9512-4.756 0-4.756 2.8536-9.512 3.8048-4.756 1.9024-9.512 20.927-19.024 39.951-39 19.975-20.926 34.244-45.658 14.268-4.756 22.829-14.268 8.5609-9.512 17.122-19.024 8.5608-10.463 19.024-18.073 10.463-8.561 26.634-10.463 3.8049-6.659 10.463-10.463 6.6585-4.756 13.317-8.561t12.366-8.561q5.7072-4.756 8.5609-13.317 15.219 0 27.585-5.707 13.317-5.708 25.683-12.366t24.731-12.366q13.317-5.707 28.536-5.707 3.8048 0 7.6096 0.951 3.8049 0 8.5609 0.951 6.6585 6.659 8.5609 16.171 2.8536 8.561 3.8048 19.024t0.9512 20.927q0.9512 10.463 3.8048 19.024-8.5608 16.17-19.024 32.341-9.5121 16.17-25.683 24.731h-1.9024q-6.6585 0.952-12.366-2.853-5.7073-3.805-13.317-3.805-4.756 0-7.6097 2.853l-4.756 4.757q-1.9024 1.902-5.7073 3.804-2.8536 1.903-8.5608 0-13.317 4.756-10.463 16.171-18.073 1.902-30.439 11.414-12.366 8.561-22.829 19.976-10.463 10.463-20.927 19.975-10.463 8.561-24.731 9.512-16.17 28.536-39.951 50.414-22.829 21.878-38.048 49.463 2.8537 7.61 3.8049 16.17 0.9512 8.561 2.8536 18.073 8.5609 11.415 19.975 19.976 12.366 8.561 23.78 17.121h2.8536q19.024 0 35.195 7.61 16.17 6.659 34.244 6.659 9.5121 0 16.17-3.805 24.731 5.707 48.512 9.512 24.731 3.805 49.463 5.707 12.366 1.902 24.731 1.902 13.317 0 24.731 2.854 10.463 2.854 20.927 7.61 10.463 3.805 20.927 8.561 21.878 9.512 40.902 20.926 19.975 11.415 35.195 27.585 15.219 15.22 23.78 36.146 8.5609 19.975 8.5609 46.609z"/>
    <path id="path4155" d="m5367.4-15238q0 8.561-3.8048 16.171l-6.6584 14.268q-2.8537 6.658-5.7073 14.268t-1.9024 18.073q-13.317 15.219-26.634 29.487t-23.78 32.341q-10.463-0.951-16.17 4.756-4.756 5.708-7.6097 15.22-19.975 6.658-35.195 20.926-15.219 13.317-26.634 29.488-50.414 20.926-94.17 51.365t-79.901 71.34q17.122 0 33.292 3.805 17.122 3.805 33.292 8.561 17.122 3.805 33.292 7.61 16.17 2.853 33.292 0.951 12.366 11.414 27.585 19.024 16.17 7.61 31.39 14.268 16.17 6.659 30.439 15.22 15.219 8.56 26.634 20.926 0 1.903-0.9512 3.805 0 0.951 0 2.854 0 7.609 3.8049 15.219 3.8048 6.658 3.8048 14.268-4.7561 7.61-8.5609 16.171-3.8048 8.56-9.5121 15.219-4.756 6.658-11.414 11.414-6.6585 4.756-18.073 5.708-4.756 16.17-15.219 25.682-10.463 8.561-23.78 16.171-12.366 6.658-24.731 14.268-12.366 6.658-20.926 18.073-28.536 6.658-56.121 19.024-26.634 11.414-47.56 33.292-14.268 1.903-29.488 4.756-14.268 1.903-28.536 1.903-19.975 0-32.341-7.61-12.366-8.561-14.268-30.439 2.8536-6.658 8.5608-11.414l12.366-9.512q6.6585-4.756 11.414-9.512 5.7072-5.708 8.5609-13.317 1.9024 0 4.756 0.951 2.8536 0 5.7073 0 11.414 0 18.073-4.756 6.6584-4.756 12.366-9.512 6.6584-4.756 14.268-8.561 7.6097-3.805 19.975-2.854 6.6584-12.365 19.975-18.073 13.317-6.658 27.585-11.414 14.268-5.707 26.634-12.366 13.317-7.609 18.073-21.878-4.7561-7.609-12.366-11.414-7.6097-4.756-17.122-7.61l-18.073-5.707q-8.5609-2.854-15.219-6.658-10.463 2.853-19.975 2.853-19.975 0-39-3.805-19.024-3.804-39-3.804-18.073 0-31.39 4.756-4.7561-0.952-10.463-2.854-4.756-1.902-9.5121-3.805-21.878 8.561-45.658 8.561h-61.828q-7.6097 0-15.219 1.902-10.463 19.025-10.463 40.902 0 16.171 4.756 31.39 4.7561 14.268 9.5121 30.439 19.024 17.122 35.195 40.902 16.17 22.829 16.17 50.414 0 6.658-0.9512 10.463-9.5121-6.658-24.731-6.658-13.317 0-25.683 3.804-11.414 3.805-24.731 5.708-10.463-4.756-21.878-9.512-11.414-5.708-21.878-13.317-7.6097-16.171-15.219-30.439-7.6097-15.219-19.024-28.536v-3.805q0-33.292-5.7072-65.633-4.7561-32.341-4.7561-65.634 0-15.219 0.9512-30.438 1.9025-16.171 9.5121-29.488-2.8536-22.829-2.8536-47.56 0-49.463 5.7072-98.926 5.7073-49.462 5.7073-100.83 0-10.463-0.9512-20.926 0-10.463-0.9512-20.927h-3.8049q-12.366 0-23.78 3.805-11.414 2.854-22.829 6.659-11.414 3.804-23.78 7.609-12.366 2.854-24.731 2.854-7.6097 3.805-12.366 7.61-4.756 3.804-9.5121 6.658-4.756 2.854-10.463 4.756-6.6585 1.902-15.219 0.951-10.463 6.659-16.17 10.464-6.6584 2.853-18.073 6.658-5.7073 1.902-9.5121 5.707l-7.6097 6.659q-3.8048 2.853-8.5608 5.707-4.7561 2.854-12.366 2.854-6.6585 0-9.5121-0.952-5.7072-4.756-9.5121-11.414-4.756-6.659-8.5608-12.366-4.7561-6.658-9.5121-11.414-5.7073-5.708-13.317-8.561 3.8048-4.756 3.8048-7.61-0.9512-3.805-0.9512-8.561 0-2.853 0.9512-3.805 4.7561-17.121 17.122-26.633 12.366-10.464 27.585-16.171 15.219-6.658 31.39-11.414 15.219-4.756 28.536-11.415 37.097 0.951 67.536-6.658 30.439-8.561 62.78-23.781 5.7073 2.854 11.414 2.854 4.7561 0 9.5121-0.951l9.5121-1.903q11.414-9.512 24.731-12.365 13.317-2.854 26.634-4.756 13.317-1.903 25.683-3.805 12.366-2.854 21.878-10.463h3.8049q22.829 0 45.658-7.61 23.78-7.61 45.658-5.707 19.024-10.464 35.195-13.317 16.171-2.854 37.097-2.854 4.7561 0 11.414-3.805 6.6585-4.756 16.17-4.756 1.9025 0 2.8537 0.952 1.9024 0 3.8048 0 8.5609 0 11.414-5.708 3.8048-5.707 18.073-5.707 6.6585 0 12.366 0.951 5.7073 0 11.414 0 6.6585 0 8.5609-4.756 1.9024-5.707 8.5608-4.756 2.8537 3.805 9.5121 3.805 6.6585-0.951 10.463-0.951 6.6584 0 7.6096 3.805 15.219-9.512 33.292-12.366 19.024-2.854 36.146-2.854 6.6584 0 13.317 0.952 6.6584 0 14.268 0.951 8.5609-5.707 19.975-5.707 6.6585 0 20.927 5.707 15.219 5.707 31.39 13.317 16.17 7.609 29.487 16.17t16.17 14.268q1.9024 1.903 1.9024 8.561 0.9512 6.659 2.8536 11.415 4.7561 11.414 8.5609 21.877 4.756 9.512 4.756 21.878zm-105.58 10.463q0-1.902-0.9512-3.804 0-2.854 0-4.756-4.756-5.708-13.317-8.561-7.6096-2.854-17.122-4.756-8.5609-1.903-18.073-2.854-8.5608-1.902-15.219-4.756-19.975 6.658-43.756 6.658-21.878 0-39-6.658-8.5609 8.561-21.878 13.317t-28.536 7.61q-14.268 1.902-29.487 2.853-14.268 0-25.683 0-3.8049 0-13.317 5.707-9.5121 5.708-17.122 5.708-5.7072 0-10.463-4.756-8.5609 6.658-23.78 11.414t-31.39 8.561q-16.17 2.854-33.292 6.658-16.17 3.805-27.585 7.61-11.414 24.732-12.366 54.219-0.9512 28.536-0.9512 56.121 0 16.171-1.9025 31.39-1.9024 15.219-1.9024 31.39 0 7.61 0.9512 16.17 0.9512 7.61 5.7073 15.22-7.6097 5.707-10.463 15.219-1.9024 8.561-1.9024 17.122 0 10.463 1.9024 19.024t3.8048 16.17q30.439-2.853 55.17-11.414 25.683-8.561 47.56-20.927 22.829-12.365 43.756-28.536 20.926-16.17 43.756-34.243 9.5121-1.903 15.219-5.708 6.6585-3.804 16.17-3.804 3.8049-13.317 14.268-18.073 10.463-5.708 16.17-16.171 11.414-2.853 19.024-7.61 8.5609-5.707 16.17-10.463 7.6097-5.707 16.171-10.463 9.512-4.756 20.926-5.707 16.171-19.024 33.292-38.049 18.073-19.024 41.853-30.438 3.8048-9.512 8.5609-16.171 4.756-7.609 8.5608-14.268 4.7561-7.61 7.6097-15.219 2.8536-8.561 2.8536-19.976z"/>
    <path id="path4157" d="m5980.9-15172v3.805q-6.6584 1.903-6.6584 9.512-10.463 4.756-21.878 7.61-11.414 1.902-21.878 6.658-10.463-0.951-21.878-0.951-10.463-0.951-20.926-0.951-28.536 0-57.072 1.902-28.536 1.903-57.072 0-13.317 7.61-29.487 12.366-15.219 3.805-29.487 3.805-11.414 0-19.975-2.854-22.829 11.415-50.414 19.025-26.634 7.609-54.219 15.219-27.585 6.658-53.268 16.17-24.731 8.561-43.756 24.732-1.9024 13.317-2.8536 26.634-0.9512 12.365-0.9512 24.731 0 13.317 0.9512 24.731 1.9024 11.415 6.6585 22.829 4.756 1.903 10.463 2.854 6.6584 0.951 11.414 0.951 4.7561 0 9.5121-0.951 4.7561-1.902 6.6585-6.658 14.268-1.903 28.536-0.952 14.268 0 28.536 0t27.585-0.951q14.268-0.951 27.585-4.756 15.219-3.805 29.488-4.756 15.219-0.951 29.487-1.902 14.268-0.952 29.487-2.854 15.219-2.854 31.39-10.463 12.366 4.756 24.731 4.756 13.317 0 25.683 1.902 6.6585 4.756 10.463 10.463 4.7561 5.708 4.7561 13.317 0 13.317-9.5121 26.634t-15.219 24.732h-10.463q-22.829 0-44.707 6.658-20.926 5.707-42.804 14.268-20.926 7.61-42.804 14.268-20.927 5.707-43.756 5.707-3.8048 0-4.756 4.756 0 3.805-1.9024 5.708-4.756-0.951-14.268-0.951-21.878 0-41.853 4.756t-40.902 4.756q-5.7072 0-11.414 0-5.7073-0.952-11.414-1.903-4.7561 7.61-12.366 10.463-7.6097 1.903-14.268 7.61-2.8537 8.561-3.8049 20.927 0 12.365-0.9512 25.682 0 12.366-1.9024 23.78-1.9024 11.415-7.6096 18.073 0.9512 4.756 7.6096 3.805 6.6585-1.902 6.6585 5.707 0 8.561-1.9024 18.073-1.9025 9.512-1.9025 19.025 0 18.073 3.8049 39.95 4.756 20.927 13.317 39 9.512 18.073 24.731 30.438 15.219 11.415 38.048 11.415 15.219 0 28.536-5.707 13.317-5.708 21.878-19.024l4.7561-0.952q3.8048 0 6.6584 0.952 3.8049 0.951 7.6097 0.951 5.7072 0 14.268-6.659 9.5121-7.609 19.975-17.121 11.414-9.513 22.829-18.073 11.414-9.512 21.878-13.317 6.6584-13.317 12.366-26.634 6.6584-13.317 19.024-20.927v-27.585q9.5121-10.463 19.975-19.024 11.414-8.561 17.122-21.878 4.7561 1.903 8.5609 2.854 4.756 0.951 9.5121 0.951 4.756 0 9.512-0.951 5.7073-0.951 10.463-2.854 7.6097 10.464 11.414 23.781 4.756 12.365 11.414 23.78-8.5609 17.121-19.975 40.902-11.414 23.78-24.731 47.56t-28.536 45.658q-14.268 20.927-28.536 32.341-2.8536 2.854-12.366 6.658-10.463 7.61-19.024 14.269-8.5609 7.609-16.171 17.121-27.585 8.561-53.268 22.829-24.731 14.268-49.463 27.585-11.414-2.853-24.731-2.853-11.414 0-22.829 0.951-11.414 1.902-24.731 1.902-3.8048-4.756-11.414-6.658-6.6584-0.951-4.756-9.512-32.341-1.903-52.316-18.073-19.975-15.219-34.244-38.048-13.317-22.829-21.878-49.463-8.5608-26.634-18.073-51.365v-2.854q0-4.756 3.8048-5.707 3.8049-0.951 3.8049-5.708 0-1.902-0.9513-2.853-2.8536-10.463-4.756-18.073t-1.9024-18.073q0-15.219 1.9024-29.487 1.9024-15.22 1.9024-30.439t-3.8048-26.634q3.8048-4.756 6.6584-12.366 1.9025-8.56 2.8537-17.121t0.9512-17.122q0.9512-8.561 2.8536-15.219-3.8048-10.464-6.6585-18.073-2.8536-8.561-2.8536-19.976v-6.658q9.5121-16.171 16.17-33.292 6.6585-17.122 14.268-35.195v-2.854q0-27.585-1.9025-55.17-1.9024-27.585-1.9024-55.17v-18.073q0-9.512 0.9512-18.073 7.6097-3.804 11.414-10.463 3.8049-6.658 11.414-10.463h31.39l5.7072-9.512q2.8536-4.756 3.8048-10.464 10.463-2.853 19.975-7.609 10.463-5.707 19.024-11.415 13.317-7.609 23.78-13.317 11.414-6.658 21.878-10.463 11.414-4.756 23.78-7.609 12.366-2.854 28.536-4.757 7.6096 0 9.5121-2.853 2.8536-2.854 7.6096-6.659 11.414 1.903 22.829 3.805 11.414 0.951 22.829 0.951 22.829 0 42.804-8.56 28.536 0 56.121-0.952 28.536-0.951 57.072-0.951 24.731 0 49.463 1.903 24.731 1.902 48.512 6.658 8.5609-2.854 19.024-2.854 11.414 0 22.829 2.854 12.366 1.902 23.78 0 0.9512 10.463 4.7561 18.073 4.756 6.658 4.756 16.17z"/>
    <path id="path4159" d="m7152.8-14733q-1.9025 14.268-10.463 21.878-7.6097 7.61-18.073 14.268-4.756-0.951-9.512-0.951-3.8049-0.951-8.5609-0.951-29.487-0.951-56.121 7.609-25.683 8.561-53.268 12.366-9.5121 1.903-18.073 1.903-7.6096-0.952-16.17 0.951-30.439 4.756-64.682 7.609-34.244 2.854-68.487 7.61-34.244 3.805-67.536 10.463-32.341 5.708-60.877 17.122-2.8536-1.902-5.7073-3.805-2.8536-2.853-6.6584-2.853-9.5121 0-18.073 2.853-8.5608 2.854-17.122 1.903-9.5121 5.707-20.927 8.56-10.463 1.903-21.878 3.805-10.463 0.952-20.927 3.805-10.463 2.854-19.975 10.463-7.6097-3.804-19.024-3.804-10.463-0.952-14.268-7.61-21.878 10.463-46.609 13.317-23.78 2.853-48.512 1.902-16.171-0.951-37.097-4.756-20.927-3.805-41.853-10.463-20.927-7.61-39-17.122-18.073-10.463-27.585-24.731-6.6585-9.512-9.5121-20.927-2.8536-11.414-13.317-17.121 2.8536-21.878 6.6584-42.805 3.8049-20.926 7.6097-42.804 19.024-16.171 36.146-34.244t32.341-38.048q18.073-8.561 33.292-20.926 16.17-12.366 31.39-24.732 16.17-13.317 31.39-25.682 16.17-12.366 34.243-21.878 2.8536-6.659 7.6097-10.463 5.7072-4.757 11.414-8.561 5.7072-4.756 10.463-9.512 4.7561-5.708 6.6585-13.317 33.292-19.976 58.024-50.414 24.731-30.439 32.341-68.487-16.17-13.317-37.097-17.122-19.975-4.756-41.853-6.658-19.024-0.952-39.951 0-19.975 0.951-40.902-0.952-20.927 6.659-43.756 8.561-21.878 1.903-43.756 3.805-21.878 0.951-43.756 5.707-20.926 3.805-40.902 15.22-3.8048 0-7.6096-0.952-2.8536-0.951-6.6585-0.951-30.439-0.951-57.072 12.366-26.634 12.366-52.316 24.731-1.9024 3.805-1.9024 5.708 0 5.707 1.9024 11.414 2.8536 4.756 2.8536 10.463-0.9512 0.952-0.9512 1.903t-0.9512 1.902q-0.9512 4.756-2.8536 8.561-0.9512 3.805-2.8537 8.561-10.463 30.439-11.414 59.926-0.9513 24.731 0 48.512 0.9512 23.78 0 48.511-1.9025 30.439-9.5121 57.073 4.756 22.828 8.5608 48.511 3.8049 24.731 9.5121 49.463 5.7073 24.731 13.317 48.511 8.5609 22.829 21.878 43.756-0.9512 1.902 0.9512 2.854 1.9024 0.951 3.8048 0.951h7.6097q4.756 0 3.8048 3.805 1.9024 2.853 2.8536 5.707 0.9512 1.902 3.8049 3.805 1.9024 2.853 0 7.609-0.9512 19.025-9.5121 35.195-8.5609 16.171-10.463 35.195-11.414 2.853-20.926 2.853-16.171-0.951-28.536-9.512-12.366-7.609-22.829-19.024-10.463-11.414-19.975-22.829-9.5121-12.366-20.927-20.926-6.6584-26.634-13.317-58.975-5.7072-32.341-19.975-55.17 3.8048-8.561 3.8048-20.927 0.9512-19.024-3.8048-37.097-3.8048-19.024-1.9024-38.048 0-10.464 1.9024-20.927 2.8536-10.463 3.8048-20.926 0.9512-16.171-3.8048-31.39-3.8048-15.22-2.8536-31.39 0.9512-7.61 2.8536-14.268 2.8536-7.61 7.6096-13.317-4.756-11.415-2.8536-21.878 0.9512-16.17 3.8048-30.438 2.8537-14.269 3.8049-28.537 0-7.609-0.9512-14.268-0.9512-7.609-2.8537-14.268l-8.5608-2.854q-5.7073 0-11.414 2.854-4.756 2.854-8.5609 6.659-3.8048 3.804-6.6584 6.658-2.8536 1.902-5.7073 1.902-1.9024 0-4.756 0-1.9024-0.951-3.8048-0.951t-7.6097 3.805q-4.756 3.805-12.366 8.561-6.6584 3.805-13.317 8.561-6.6584 3.805-10.463 4.756-10.463-1.903-17.122-6.659-5.7072-5.707-11.414-10.463-4.756-5.707-10.463-9.512-5.7072-4.756-14.268-3.805-2.8536-5.707-2.8536-12.366-0.9512-6.658 0-13.316v-15.22q6.6584-12.365 18.073-19.975 10.463-8.561 22.829-14.268l24.731-11.415q12.366-5.707 22.829-14.268h8.5608q17.122 0.951 29.488-6.658 13.317-7.61 24.731-17.122 11.414-10.463 22.829-20.927 12.366-10.463 26.634-16.17 10.463 4.756 21.878 8.561 11.414 2.853 23.78 3.805 12.366 0 25.683-3.805t20.927-14.268q4.756 1.902 7.6096 2.853 3.8048 0 8.5609 0 14.268 0.952 28.536-3.805 14.268-5.707 27.585-13.316 19.024 0.951 37.097-1.903 19.024-3.805 37.097-7.61 19.024-3.804 37.097-6.658 19.024-3.805 38.048-2.854 31.39 0.952 61.828-5.707 30.439-6.658 61.828-4.756 21.878 0.951 42.804 3.805 21.878 1.902 43.756 0.951 12.366 5.707 21.878 10.463 10.463 3.805 25.683 1.903 30.439 25.682 55.17 59.926v16.17q-0.9512 21.878-7.6097 42.805-6.6584 20.926-16.17 41.853-8.5609 19.975-19.024 39.951-10.463 19.024-19.975 38.048-61.828 56.121-123.66 111.29-61.828 55.17-127.46 106.54-1.9025 9.512-5.7073 17.122-2.8536 7.61-3.8048 16.171 0 4.756 0.9512 7.609 6.6584 1.903 11.414 7.61 5.7072 4.756 3.8048 13.317h8.5609q4.756 0 4.756 3.805l15.219 0.951q36.146 1.902 72.292-1.903 36.146-3.804 72.292-8.56 37.097-4.756 73.243-8.561 36.146-4.756 72.292-5.707 8.5608-2.854 18.073-4.757 9.5121-1.902 17.122-7.609h2.8537q6.6584 0 9.512 3.805 3.8049 3.804 10.463 4.756 4.7561 0 9.5121-1.903 5.7072-1.902 11.414-2.853 13.317-3.805 27.585-4.756 15.219-0.952 29.487-2.854 55.17-4.756 109.39-5.707 54.219-1.903 108.44-14.268 4.756 6.658 13.317 9.512 8.5609 1.902 18.073 4.756 9.5121 1.902 17.122 4.756 8.5608 2.853 11.414 11.414z"/>
    <path id="path4161" d="m7874.7-15093q-2.8537 8.561-11.414 12.365-7.6097 2.854-16.17 4.756-8.5609 1.903-16.171 6.659-6.6584 3.805-8.5608 13.317l-1.9025 0.951q-3.8048 0-5.7072-1.902-0.9512-2.854-1.9024-4.756-0.9512-2.854-2.8536-4.757-0.9512-2.853-3.8049-2.853-10.463 0-20.926 1.902-9.5121 1.903-19.024 1.903-14.268 0-25.683-3.805-6.6584 1.902-7.6096 8.561 0 6.658-5.7073 8.561-4.756 1.902-11.414 1.902-6.6584-0.951-13.317 0.951l-30.439 7.61q-15.219 3.805-30.439 3.805-8.5609 0-12.366-0.951-14.268 11.414-32.341 17.121-18.073 4.756-38.048 9.512-19.024 3.805-38.048 10.464-18.073 6.658-32.341 20.926-7.6097-1.902-13.317-1.902-12.366 0-21.878 5.707-9.5121 4.756-19.975 9.512-4.7561 1.902-9.5121 1.902t-10.463 1.903q-5.7072 1.902-7.6097 6.658-0.9512 3.805-5.7072 7.61 0 34.243 6.6585 68.487 6.6584 33.292 6.6584 67.536v3.804q1.9024 16.171 10.463 30.439 8.5609 13.317 8.5609 27.585 0 4.756-1.9025 10.463 24.731 5.708 32.341 25.683 8.5609 19.024 13.317 41.853 5.7072 21.878 14.268 40.902 9.5121 19.024 36.146 23.78 1.9024 9.512 2.8536 19.976 0.9512 9.512 0.9512 19.024 0 13.317-2.8536 25.682-2.8536 13.317-11.414 23.781-14.268 0.951-20.927 0.951-6.6584 0-19.975 5.707-19.024-11.415-34.244-26.634-14.268-14.268-27.585-30.438-12.366-17.122-24.731-34.244-12.366-18.073-26.634-34.243-49.463 12.365-101.78 17.121-51.365 3.805-102.73 3.805-1.9024 1.903-5.7072 1.903t-7.6097 0.951q-2.8536 0-5.7072 1.902-1.9024 0.951-0.9512 4.756-6.6585-3.805-15.219-4.756-7.6097-1.902-14.268-1.902-4.7561 0-9.5121 0.951-4.7561 0-9.5121 2.854-36.146-6.659-70.389-18.073-33.292-12.366-68.487-19.976 0-7.609-3.8048-10.463-3.8048-3.805-6.6584-10.463-39.951-24.732-67.536-59.926-26.634-35.195-21.878-85.609l-6.6585-13.317q0-15.219 6.6585-21.878-3.8049-6.658-13.317-13.317 8.5608-13.316 15.219-27.585 6.6584-14.268 9.5121-30.438 0.9512-4.756 0.9512-8.561t1.9024-8.561q1.9024-5.707 5.7072-12.366 2.8536-7.609 5.7073-13.317 15.219-32.341 33.292-61.828 19.024-30.439 47.56-52.316 1.9024-16.171 9.5121-26.634 7.6096-11.415 16.17-19.976 9.5121-9.512 18.073-19.024 9.5121-9.512 14.268-22.829 19.024-16.17 38.048-31.39 19.975-15.219 33.292-36.145 17.122-5.708 32.341-14.269 15.219-9.512 25.683-23.78 22.829-1.902 44.707-8.561 22.829-6.658 47.56-6.658 10.463 0 24.731 4.756 15.219 3.805 22.829 14.268 0.9512 1.903 0.9512 4.756l0.9512 4.756q0.9512 1.903 1.9024 3.805 1.9025 0.951 5.7073 0 0 20.927-4.7561 42.804-4.756 20.927-24.731 32.341-12.366-3.804-26.634-3.804-19.024 0-35.195 7.609-15.219 6.659-30.439 16.171-14.268 8.561-29.487 18.073-15.219 8.561-32.341 12.365-1.9024 7.61-3.8049 14.269-0.9512 5.707 0.9512 13.316-4.756 0-7.6096-0.951-1.9024-1.902-6.6585-1.902-6.6584 0-9.512 7.609-1.9025 7.61-3.8049 12.366-18.073 7.61-30.439 21.878-11.414 13.317-21.878 29.487-9.512 15.22-20.926 29.488t-28.536 21.878q-7.6096 30.438-15.219 59.926-6.6584 29.487-16.17 58.974 2.8536 11.415 2.8536 23.781 0 15.219-2.8536 27.585 4.756 7.609 9.5121 18.073l11.414 21.877q5.7072 11.415 11.414 20.927 6.6584 9.512 12.366 14.268 10.463 7.61 32.341 14.268 21.878 5.707 39 19.975 1.9024 0 4.756 0 2.8537-0.951 4.7561-0.951 11.414 0 24.731 5.708 13.317 5.707 17.122 5.707 53.268 0 116.05-6.659 62.78-7.609 116.05-18.073 1.9024-9.512 1.9024-16.17 0-12.366-3.8048-23.78-3.8049-12.366-12.366-20.927 0-14.268 0-28.536 0.9512-14.268 0.9512-28.536 0-23.781-1.9024-50.414-1.9024-26.634-9.5121-49.463h-1.9024q-12.366 0-22.829 6.658-9.5121 5.708-19.975 5.708-5.7073 0-9.5121-2.854-11.414 13.317-27.585 19.975-16.171 6.659-34.244 12.366-18.073 4.756-36.146 10.463-17.122 5.708-31.39 16.171-7.6097-2.854-14.268-2.854-6.6585 0-13.317 0.951-5.7073 0.952-13.317 1.903-19.975-17.122-19.975-42.804 0-13.317 3.8048-25.683 4.7561-13.317 12.366-24.731 4.7561-2.854 11.414-2.854 6.6585-0.951 13.317-1.903 6.6585-1.902 10.463-4.756 4.756-2.853 5.7073-10.463 2.8536 2.854 4.756 2.854t3.8048-0.951q1.9024-0.952 3.8048-0.952 1.9025 0 2.8537 1.903 1.9024 1.902 1.9024 3.805 40.902-21.878 83.706-37.097 42.804-15.22 86.56-27.585 44.707-12.366 89.414-22.829 44.707-11.415 88.462-24.732 6.6584-5.707 14.268-8.561 7.6096-2.853 13.317-8.561 6.6584 3.805 16.17 3.805 13.317 0 28.536-4.756 16.171-5.707 26.634-13.317 3.8049 0.952 6.6585 0.952h6.6584q19.024 0 35.195-5.708 17.122-5.707 33.292-15.219h4.756q29.487 0 58.024-6.659 29.488-6.658 59.926-6.658 39 0 68.487 19.975v11.415q0 7.61 0 14.268 0.9512 5.707 3.8049 12.366z"/>
   </g>
   <g id="g4359-8-9" transform="matrix(.58235 0 0 .58235 13172 -14433)" stroke="#000" stroke-width="112.91">
    <g id="g4423" transform="matrix(2.9278 0 0 2.9278 -4612.3 18593)">
     <g id="g4427" transform="translate(-787.98 -1389.3)" stroke="#000" stroke-width="112.91">
      <path id="path4320-5-2" d="m-4628.3-5813.1c6.9778-74.575 10.823-149.26 21.423-223.44 24.976-128.53 73.948-253.04 140.72-365.67 18.563-31.313 39.512-61.148 59.268-91.723 78.346-106.54 167.19-208.61 276.19-285.03 72.178-50.605 152.53-82.15 232.15-120.51 103.91-37.465 215.27-38.21 323.94-27.943 106.12 23.439 202.01 76.592 299.71 122.19 39.248 16.028 78.377 42.17 122.26 27.581 12.718-4.2283 48.671-22.459 36.326-17.238-22.192 9.3868-43.924 19.827-65.886 29.741 19.468-13.52 39.659-26.054 58.405-40.558 99.745-77.177 188.46-169.14 278.95-256.52 158.69-153.26 74.055-72.95 233.78-222.19 119.9-108.7 243-216.27 383.96-297.19 70.709-40.593 168.53-80.79 235.7-111.06 20.146-1.7848 40.281-7.0164 60.438-5.3543 38.429 3.1688 92.624 25.026 122.81 47.877 45.41 34.372 98.389 100.33 128.66 146.34 21.956 33.371 39.747 69.304 59.62 103.96 19.785 44.573 42.362 88.008 59.354 133.72 40.999 110.29 69.96 231.7 93.983 346.41 25.643 122.44 41.469 224.66 56.682 348.33 6.1842 50.268 10.564 100.74 15.847 151.11 10.455 105.25 16.751 211.15 12.644 316.94-0.875 22.535-3.1406 44.995-4.7108 67.492l-112.01 47.966c2.4885-22.646 5.7071-45.223 7.4656-67.937 8.2441-106.49 5.3696-213.47-2.3674-319.89-4.3355-50.651-7.5436-101.41-13.007-151.95-12.616-116.72-29.534-233.5-54.022-348.38-24.37-114.32-55.215-232.87-98.855-341.75-17.99-44.884-41.74-87.24-62.61-130.86-20.362-33.829-38.652-68.996-61.087-101.49-57.94-83.909-140.84-176.23-251.33-180.22-19.519-0.7052-38.739 5.0183-58.108 7.5274 15.888-10.078 66.013-34.406 47.666-30.236-24.207 5.5023-141.53 76.775-154.83 85.511-110.91 72.85-211.87 159.77-310.41 248.21-132.7 123.48-102.97 94.176-232.79 221.58-87.2 85.578-171.31 176.37-266 253.98-17.73 14.532-36.823 27.317-55.235 40.975-51.997 26.741-103.41 54.65-155.99 80.224-12.68 6.1672-25.834 11.799-39.589 14.902-10.992 2.4796-22.552 2.7694-33.763 1.6458-31.289-3.1359-61.799-25.636-90.48-36.188-95.553-47.098-190.8-99.528-296.74-118.74-107.23-8.7745-216.45-7.6877-318.21 31.716 15.532-8.7125 61.534-35.833 46.596-26.137-21.439 13.915-44.901 24.577-66.127 38.814-110.96 74.426-201.65 175.84-280.76 282.36-19.422 30.105-40.087 59.444-58.267 90.316-65.053 110.47-111.98 232.56-134.83 358.71-9.8858 73.062-14.81 146.51-16.327 220.23l-120.21 51.842z"/>
      <path id="path4322-0-8" d="m-4413.6-5911.7c29.076-5.9654 47.472-10.119 79.417-14.146 77.189-9.7286 153.44-14.385 231.42-17.218 129.82-4.7153 280.55-4.6291 409.61-5.4595 241.55 0 483.06 4.2941 724.59 6.7303 82.455 0.8317 164.91 2.5266 247.37 2.2984 205.43-0.5684 257.36-4.2908 457.27-12.048 229.1-13.716 120.64-6.0417 325.42-22.319l-93.531 58.038c-198.47 11.817-93.182 6.2929-315.9 15.996-181.78 5.2212-267.37 8.8609-453.13 9.0244-82.366 0.072-164.72-1.677-247.08-2.4748-242.89-2.3531-485.8-5.5321-728.71-3.9794-220.71 3.3898-443.36 2.4845-661.93 37.959-36.188 5.8731-52.46 10.484-84.472 18.574l109.66-70.976z"/>
     </g>
    </g>
   </g>
  </g>
 </g>
</svg>
