<?xml version="1.0" encoding="UTF-8" standalone="no"?>
<svg xmlns="http://www.w3.org/2000/svg" version="1.1"
   width="576" height="622" viewBox="58 224 576 622">
  <g
     id="layer1">
    <path
       d="m 135.99928,423.41695 c 0.1325,0.02 13.105,3.2875 36.0575,14.45625 20.665,10.04375 33.98625,20.68625 34.12,20.79125 l 3.03875,-3.80125 c -0.54625,-0.44625 -13.85625,-11.0575 -35.02625,-21.3775 -23.4675,-11.4175 -36.475,-14.675 -37.01125,-14.8 l -1.17875,4.73125"
       id="path3921"
       style="fill:#ffffff;fill-opacity:1;fill-rule:nonzero;stroke:none" />
    <path
       d="m 139.14553,481.25945 c 0.97875,0.11375 23.9625,3.02375 34.805,2.81875 l 32.04,-2.26 -0.45375,-4.85125 -31.68375,2.245 c -10.48625,0.21125 -33.85375,-2.75875 -34.06375,-2.78375 l -0.64375,4.83125"
       id="path3925"
       style="fill:#ffffff;fill-opacity:1;fill-rule:nonzero;stroke:none" />
    <path
       d="m 589.75678,452.17695 c -13.175,4.0725 -39.2825,7.37 -39.54125,7.4 l 0.61875,4.82625 c 1.0675,-0.13625 26.76125,-3.38875 40.3675,-7.59375 16.09625,-4.98125 27.09625,-13.8225 27.55375,-14.1975 l -3.0575,-3.77625 c -0.12,0.085 -10.775,8.6525 -25.94125,13.34125"
       id="path3929"
       style="fill:#ffffff;fill-opacity:1;fill-rule:nonzero;stroke:none" />
    <path
       d="m 550.93303,498.6732 c 0.64875,0.275 16.01,7.11625 32.325,9.3625 16.0175,2.15 26.80625,1.62625 27.275,1.59 l -0.25875,-4.85375 c -0.115,0 -10.85,0.5325 -26.36875,-1.56625 -15.5975,-2.1475 -30.815,-8.90875 -30.975,-8.9725 l -1.9975,4.44"
       id="path3933"
       style="fill:#ffffff;fill-opacity:1;fill-rule:nonzero;stroke:none" />
    <path
       d="m 582.21053,475.4907 c -3.93375,-21.825 -20.24875,-36.07625 -33.26375,-44.17 -5.11875,-3.23875 -9.81,-5.57875 -13.3025,-7.16125 -0.89375,-9.96 -4.325,-31.40125 -17.8675,-56.36 -9.6075,-17.78625 -37.92,-41.8475 -46.275,-48.78375 -1.105,-5.27125 -16.435,-78.54125 -16.435,-78.54125 0,0 -0.54875,0.49375 -0.59125,0.51875 -0.0163,-0.1375 -0.22625,-1.06 -0.22625,-1.06 0,0 -50.6675,45.5875 -53.7025,48.2775 -3.35125,0.7525 -20.4175,4.595 -22.5925,5.09125 -9.58,-1.08 -18.3625,-1.5875 -26.735,-1.49625 -22.325,0.26625 -43.8925,5.18125 -52.48625,7.3825 -5.83125,-4.06875 -68.97125,-47.98875 -68.97125,-47.98875 0.0575,0.0875 -0.7225,-0.4375 -0.7225,-0.4375 l -14.56375,-10.305 c 0,0 9.635,118.11875 10.14125,124.21875 -8.87375,11.56625 -36.7625,51.445 -36.7625,96.53375 0,16.1075 3.59875,32.92875 12.94875,49.28 12.4025,21.76625 29.6975,40.15375 51.40875,54.785 -11.94625,3.69375 -22.0425,12.015 -32.54625,20.74125 l -10.735,8.66375 c -2.50625,1.95875 -5.4275,3.73625 -8.44625,5.62875 -9.42125,5.82375 -21.85375,13.52625 -21.85375,29.325 0,2.635 0.35,5.475 1.0975,8.5775 0.90375,3.7075 2.94875,11.2425 6.3875,20.1475 -9.00625,-3.57625 -16.89375,-8.58125 -23.52,-15.00375 -11.3625,-11.00125 -19.6425,-24.88875 -26.9075,-37.1825 -5.91125,-10.015 -11.04875,-18.64375 -17.055,-24.53125 -10.3875,-10.145 -20.45,-8.35375 -27.05375,-5.085 -11.70375,5.795 -18.90625,21.82625 -18.90625,41.53125 0,1.40625 0.05,2.82375 0.1225,4.27 1.47625,28.7225 19.03375,65.39375 63.8075,82.08125 11.35,4.26 22.2375,6.68 32.56875,8.1725 -5.14875,1.75125 -9.67,3.11375 -12.57125,3.93625 -6.40375,-3.2975 -20.04375,-8.0725 -34.91,0.85375 -12.70875,7.635 -13.98375,25.7925 -3.5925,49.845 12.5525,29.03 43.6775,68.45375 70.5025,60.85 12.2025,-3.41375 20.06125,-9.7 23.3825,-18.62625 1.1925,-3.15875 1.68875,-6.4175 1.68875,-9.67 0,-11.09375 -5.825,-22.235 -10.9625,-30.5275 36.935,-10.73 73.27875,-31.7225 86.64,-39.92125 9.27625,9.05625 18.4025,18.2175 27.03,27.375 26.8525,28.58125 66.30125,62.89875 67.97125,64.33875 l 1.8175,1.5925 2.37375,0.355 c 1.6175,0.215 39.36,5.9525 71.51625,7.23 34.04125,1.35125 48.28125,-2.4 50.88625,-13.5175 3.145,-13.2875 1.2275,-24.62875 -5.615,-33.63375 -9.68375,-12.7075 -28.53625,-19.71375 -56.11,-20.81125 -11.75,-0.46875 -22.0525,0.30375 -27.42375,0.81375 -15.88875,-14.60125 -28.19375,-26.01375 -34.755,-32.19 -7.49,-7.08125 -19.375,-19.23125 -35.31375,-36.05625 5.66,-5.29125 11.7025,-12.51 19.22125,-22.92375 1.5075,-2.0775 3.12375,-4.575 4.795,-7.395 3.61875,2.69875 9.40875,7.665 17.85875,16.775 10.515,11.28125 21.2475,16.64125 32.90125,16.4225 9.7525,-0.165 18.635,-4.2025 27.27625,-8.10875 l 0.73875,-0.37 c 10.84,-4.95 46.2675,-22.78125 50.2775,-45.6125 1.02,-5.8925 0.43,-14.705 -8.29625,-23.2925 -6.77,-6.58125 -13.52875,-10.10375 -20.66875,-10.7475 -11.35125,-1.02375 -20.6675,5.6425 -28.89625,11.54125 -5.28875,3.83625 -10.31125,7.42 -15.51875,9.10125 -1.62625,0.5 -3.16375,0.76375 -4.58,0.76375 -6.57875,0 -11.34875,-5.98375 -17.89375,-15.11 -2.4,-3.2775 -4.825,-6.735 -7.515,-9.605 -1.4075,-1.50625 -2.855,-2.90875 -4.2425,-4.27625 15.46125,-0.47 31.16875,-1.94625 46.95625,-4.44625 72.03375,-11.65625 106.2775,-41.10625 122.34125,-63.72125 10.855,-15.30375 16.63875,-32.25375 16.63875,-47.92125 0,-3.53875 -0.28125,-7.0325 -0.91,-10.43"
       id="path3937"
       style="fill:#ffffff;fill-opacity:1;fill-rule:nonzero;stroke:none" />
    <path
       d="m 582.21053,475.4907 c -3.93375,-21.825 -20.24875,-36.07625 -33.26375,-44.17 -5.11875,-3.23875 -9.81,-5.57875 -13.3025,-7.16125 -0.89375,-9.96 -4.325,-31.40125 -17.8675,-56.36 -9.6075,-17.78625 -37.92,-41.8475 -46.275,-48.78375 -1.105,-5.27125 -16.435,-78.54125 -16.435,-78.54125 0,0 -0.54875,0.49375 -0.59125,0.51875 -0.0163,-0.1375 -0.22625,-1.06 -0.22625,-1.06 0,0 -50.6675,45.5875 -53.7025,48.2775 -3.35125,0.7525 -20.4175,4.595 -22.5925,5.09125 -9.58,-1.08 -18.3625,-1.5875 -26.735,-1.49625 -22.325,0.26625 -43.8925,5.18125 -52.48625,7.3825 -5.83125,-4.06875 -68.97125,-47.98875 -68.97125,-47.98875 0.0575,0.0875 -0.7225,-0.4375 -0.7225,-0.4375 l -14.56375,-10.305 c 0,0 9.635,118.11875 10.14125,124.21875 -8.87375,11.56625 -36.7625,51.445 -36.7625,96.53375 0,16.1075 3.59875,32.92875 12.94875,49.28 12.4025,21.76625 29.6975,40.15375 51.40875,54.785 -11.94625,3.69375 -22.0425,12.015 -32.54625,20.74125 l -10.735,8.66375 c -2.50625,1.95875 -5.4275,3.73625 -8.44625,5.62875 -9.42125,5.82375 -21.85375,13.52625 -21.85375,29.325 0,2.635 0.35,5.475 1.0975,8.5775 0.90375,3.7075 2.94875,11.2425 6.3875,20.1475 -9.00625,-3.57625 -16.89375,-8.58125 -23.52,-15.00375 -11.3625,-11.00125 -19.6425,-24.88875 -26.9075,-37.1825 -5.91125,-10.015 -11.04875,-18.64375 -17.055,-24.53125 -10.3875,-10.145 -20.45,-8.35375 -27.05375,-5.085 -11.70375,5.795 -18.90625,21.82625 -18.90625,41.53125 0,1.40625 0.05,2.82375 0.1225,4.27 1.47625,28.7225 19.03375,65.39375 63.8075,82.08125 11.35,4.26 22.2375,6.68 32.56875,8.1725 -5.14875,1.75125 -9.67,3.11375 -12.57125,3.93625 -6.40375,-3.2975 -20.04375,-8.0725 -34.91,0.85375 -12.70875,7.635 -13.98375,25.7925 -3.5925,49.845 12.5525,29.03 43.6775,68.45375 70.5025,60.85 12.2025,-3.41375 20.06125,-9.7 23.3825,-18.62625 1.1925,-3.15875 1.68875,-6.4175 1.68875,-9.67 0,-11.09375 -5.825,-22.235 -10.9625,-30.5275 36.935,-10.73 73.27875,-31.7225 86.64,-39.92125 9.27625,9.05625 18.4025,18.2175 27.03,27.375 26.8525,28.58125 66.30125,62.89875 67.97125,64.33875 l 1.8175,1.5925 2.37375,0.355 c 1.6175,0.215 39.36,5.9525 71.51625,7.23 34.04125,1.35125 48.28125,-2.4 50.88625,-13.5175 3.145,-13.2875 1.2275,-24.62875 -5.615,-33.63375 -9.68375,-12.7075 -28.53625,-19.71375 -56.11,-20.81125 -11.75,-0.46875 -22.0525,0.30375 -27.42375,0.81375 -15.88875,-14.60125 -28.19375,-26.01375 -34.755,-32.19 -7.49,-7.08125 -19.375,-19.23125 -35.31375,-36.05625 5.66,-5.29125 11.7025,-12.51 19.22125,-22.92375 1.5075,-2.0775 3.12375,-4.575 4.795,-7.395 3.61875,2.69875 9.40875,7.665 17.85875,16.775 10.515,11.28125 21.2475,16.64125 32.90125,16.4225 9.7525,-0.165 18.635,-4.2025 27.27625,-8.10875 l 0.73875,-0.37 c 10.84,-4.95 46.2675,-22.78125 50.2775,-45.6125 1.02,-5.8925 0.43,-14.705 -8.29625,-23.2925 -6.77,-6.58125 -13.52875,-10.10375 -20.66875,-10.7475 -11.35125,-1.02375 -20.6675,5.6425 -28.89625,11.54125 -5.28875,3.83625 -10.31125,7.42 -15.51875,9.10125 -1.62625,0.5 -3.16375,0.76375 -4.58,0.76375 -6.57875,0 -11.34875,-5.98375 -17.89375,-15.11 -2.4,-3.2775 -4.825,-6.735 -7.515,-9.605 -1.4075,-1.50625 -2.855,-2.90875 -4.2425,-4.27625 15.46125,-0.47 31.16875,-1.94625 46.95625,-4.44625 72.03375,-11.65625 106.2775,-41.10625 122.34125,-63.72125 10.855,-15.30375 16.63875,-32.25375 16.63875,-47.92125 0,-3.53875 -0.28125,-7.0325 -0.91,-10.43"
       id="path3941"
       style="fill:#221e1f;fill-opacity:1;fill-rule:nonzero;stroke:none" />
    <path
       d="m 442.83678,589.28945 c 109.065,-17.5675 137.12875,-79.07375 131.18,-112.30625 -5.9975,-33.2225 -46.43,-46.935 -46.43,-46.935 0,0 0.41875,-25.87375 -17.14,-58.2575 -10.42125,-19.25875 -46.52125,-48.16625 -46.52125,-48.16625 l -14.09125,-67.31125 -44.495,40.065 -24.98875,5.61875 c -8.8525,-1.15125 -18.8325,-1.97625 -29.0525,-1.85875 -27.34375,0.32625 -54.1425,8.0875 -54.1425,8.0875 l -72.16875,-50.18 8.94,109.69375 c 3.93375,-4.43875 -63.59,71.725 -25.115,139.1225 18.02375,31.64625 46.74375,55.4925 83.25125,70.1925 l -2.6875,2.26125 c -2.0125,-1.5225 -4.4925,-2.935 -7.69125,-4.1975 -28.72125,-11.46625 -43.68625,7.68 -67.5475,26.13875 -12.88,9.94375 -31.2,14.48 -26.2575,34.95625 1.97625,8.03 6.28,21.7325 13.21625,34.4675 l -0.73125,0.41875 c -13.85,-2.69 -30.05625,-8.7025 -43.59125,-21.73625 -30.44375,-29.465 -38.82625,-76.58875 -61.5,-65.3575 -22.7125,11.26375 -25.015,86.81875 44.25,112.58625 23.81875,8.92875 45.86625,9.74625 63.74,9.91625 l -0.03,-0.575 14.84125,-6.94125 c -3.875,2.385 -9.69625,5.7 -17.895,9.72 l -20.28875,7.76125 -0.63375,1.43625 c -12.0975,4.51 -23.81875,7.66 -23.81875,7.66 0,0 -13.915,-10.34875 -29.43625,-1.01875 -25.42375,15.27875 29.18125,104.32875 60.3125,95.52125 37.735,-10.6525 8.5775,-46.73375 3.18875,-55.96 48.14,-10.96875 100.60875,-45.04 100.60875,-45.04 l -0.815,0.315 1.215,-0.61 c 9.34625,8.95125 20.345,19.855 32.04125,32.26125 26.88875,28.54125 67.31125,63.725 67.31125,63.725 0,0 109.105,16.60125 112.98875,0.035 13.14125,-56.1125 -83.9075,-42.96625 -83.9075,-42.96625 0,0 -25.77625,-23.6525 -37.61875,-34.87625 -10.5375,-9.97875 -27.8475,-28.06875 -41.5475,-42.61375 l 1.085,-1.27625 c 6.8925,-5.045 14.09625,-13.27375 23.3275,-26.02125 3.04375,-4.20375 6.2625,-9.86625 9.0025,-15.26625 l -0.0113,1.6125 c 0,0 7.0725,1.2325 26.59625,22.225 19.515,20.97625 34.39125,13.74125 51.33125,6.0375 16.8925,-7.74375 62.11,-33.17375 39.51,-55.32875 -22.6175,-22.155 -36.1025,5.30125 -56.6,11.8575 -20.5175,6.53 -28.68125,-15.425 -38.71125,-26.19125 -8.5425,-9.25375 -17.605,-15.01125 -20.03,-16.4925 l 0.24,-1.79125 c 21.2075,0.7275 43.71125,-0.585 67.3175,-4.4175"
       id="path3945"
       style="fill:#f8a31f;fill-opacity:1;fill-rule:nonzero;stroke:none" />
    <path
       d="m 97.641783,584.30945 c -13.87125,2.56 -20.15625,28.6875 -15.00125,49.48125 5.10625,20.7575 11.4675,34.71375 21.486247,42.4225 9.995,7.70125 -1.8175,-17.68375 10.7975,-27.54875 12.595,-9.85 34,-4.17625 34,-4.17625 0,0 -16.3,-24.10625 -25.56125,-38.65625 -9.29875,-14.55625 -12.4,-23.9925 -25.721247,-21.5225"
       id="path3949"
       style="fill:#ffffff;fill-opacity:1;fill-rule:nonzero;stroke:none" />
    <path
       d="m 368.66428,659.5232 c 0,0 14.81,-14.84625 -13.15375,-31.2075 -27.98125,-16.41125 -41.6575,-1.63125 -50.7725,6.9475 -15.85875,14.75375 17.135,42.35375 17.135,42.35375 l 18.40625,14.99375 c 0,0 11.00375,-8.4675 15.67,-15.9575 4.67125,-7.535 12.715,-17.13 12.715,-17.13"
       id="path3953"
       style="fill:#ffffff;fill-opacity:1;fill-rule:nonzero;stroke:none" />
    <path
       d="m 319.44053,456.5132 c 0,0 -48.89625,3.59375 -51.7125,33.26875 -7.05375,74.45 115.965,104.15875 115.965,104.15875 0,0 58.06125,4.30125 111.66875,-21.2375 53.67625,-25.4975 85.0325,-57.4625 77.88125,-94.99125 -7.19125,-37.52 -52.96875,-46.88625 -52.96875,-46.88625 l -11.55625,-14.67375 -53.2,13.4375 c 0,0 -0.69875,19.765 -26.12875,24.32375 -25.4425,4.5725 -64.26875,-15.49625 -64.26875,-15.49625 l -45.68,18.09625"
       id="path3957"
       style="fill:#ffffff;fill-opacity:1;fill-rule:nonzero;stroke:none" />
    <path
       d="m 404.54428,295.86445 44.55625,-40.06125 14.075,67.32 c 0,0 36.10625,28.8775 46.52625,48.16375 17.57,32.37 17.12375,58.2775 17.12375,58.2775 0,0 40.45625,13.65125 46.43375,46.925 5.95625,33.24125 -22.11625,94.7175 -131.215,112.31625 -109.04625,17.585 -195.51375,-14.98875 -233.99125,-82.4275 -38.48125,-67.40875 29.03625,-143.5475 25.1325,-139.1575 l -8.9675,-109.63 84.86125,59.8425"
       id="path3961"
       style="fill:none;stroke:#42291b;stroke-width:1.25;stroke-linecap:butt;stroke-linejoin:miter;stroke-miterlimit:4;stroke-opacity:1;stroke-dasharray:none" />
    <path
       d="m 411.29803,307.5932 c 0,0 -29.48125,-8.29125 -60.76875,-7.9475 -27.32875,0.2925 -54.1425,8.0925 -54.1425,8.0925"
       id="path3965"
       style="fill:none;stroke:#42291b;stroke-width:1.25;stroke-linecap:butt;stroke-linejoin:miter;stroke-miterlimit:4;stroke-opacity:1;stroke-dasharray:none" />
    <path
       d="m 357.90053,385.34945 c 15.94375,26.46 13.0725,57.49375 -6.44375,69.23875 -19.49625,11.76125 -48.25375,-0.18 -64.20625,-26.66625 -16.0025,-26.48625 -13.09625,-57.4775 6.405,-69.235 19.53,-11.76375 48.29625,0.16625 64.245,26.6625"
       id="path3969"
       style="fill:#ffffff;fill-opacity:1;fill-rule:nonzero;stroke:none" />
    <path
       d="m 357.90053,385.34945 c 15.94375,26.46 13.0725,57.49375 -6.44375,69.23875 -19.49625,11.76125 -48.25375,-0.18 -64.20625,-26.66625 -16.0025,-26.48625 -13.09625,-57.4775 6.405,-69.235 19.53,-11.76375 48.29625,0.16625 64.245,26.6625 z"
       id="path3973"
       style="fill:none;stroke:#42291b;stroke-width:5.05000019;stroke-linecap:butt;stroke-linejoin:miter;stroke-miterlimit:4;stroke-opacity:1;stroke-dasharray:none" />
    <path
       d="m 497.00803,371.57195 c 15.9625,26.45125 15.505,56.01625 -0.97875,65.95625 -16.52125,9.965 -42.78875,-3.46875 -58.765,-29.94 -15.98875,-26.48625 -15.57,-56.01 0.9775,-65.97875 16.4875,-9.92 42.82375,3.4675 58.76625,29.9625"
       id="path3977"
       style="fill:#ffffff;fill-opacity:1;fill-rule:nonzero;stroke:none" />
    <path
       d="m 497.00803,371.57195 c 15.9625,26.45125 15.505,56.01625 -0.97875,65.95625 -16.52125,9.965 -42.78875,-3.46875 -58.765,-29.94 -15.98875,-26.48625 -15.57,-56.01 0.9775,-65.97875 16.4875,-9.92 42.82375,3.4675 58.76625,29.9625 z"
       id="path3981"
       style="fill:none;stroke:#42291b;stroke-width:5.05000019;stroke-linecap:butt;stroke-linejoin:miter;stroke-miterlimit:4;stroke-opacity:1;stroke-dasharray:none" />
    <path
       d="m 340.79803,422.68695 c -0.1325,4.84625 -3.87125,8.58875 -8.30125,8.41875 -4.42875,-0.145 -7.86,-4.19625 -7.65875,-8.9975 0.1675,-4.78 3.89125,-8.5325 8.2975,-8.3575 4.42,0.135 7.82375,4.1625 7.6625,8.93625"
       id="path3985"
       style="fill:#221e1f;fill-opacity:1;fill-rule:nonzero;stroke:none" />
    <path
       d="m 487.58178,409.19445 c -0.19,4.79625 -3.8825,8.5875 -8.31625,8.42375 -4.38375,-0.17625 -7.87125,-4.1825 -7.69,-8.9725 0.19,-4.82 3.93,-8.58125 8.3425,-8.4125 4.43,0.14375 7.8425,4.17125 7.66375,8.96125"
       id="path3989"
       style="fill:#221e1f;fill-opacity:1;fill-rule:nonzero;stroke:none" />
    <path
       d="m 424.64928,441.56945 c 10.7375,0.40375 26.4275,-0.66875 27.035,4.26125 0.64,4.975 -10.75,23.91625 -18.1725,24.49125 -7.425,0.5375 -34.87875,-14.865 -34.94875,-23.9225 -0.085,-9.05625 16.23625,-5.17375 26.08625,-4.83"
       id="path3993"
       style="fill:#604b44;fill-opacity:1;fill-rule:nonzero;stroke:none" />
    <path
       d="m 424.64928,441.56945 c 10.7375,0.40375 26.4275,-0.66875 27.035,4.26125 0.64,4.975 -10.75,23.91625 -18.1725,24.49125 -7.425,0.5375 -34.87875,-14.865 -34.94875,-23.9225 -0.085,-9.05625 16.23625,-5.17375 26.08625,-4.83 z"
       id="path3997"
       style="fill:none;stroke:#42291b;stroke-width:0.98500001;stroke-linecap:butt;stroke-linejoin:miter;stroke-miterlimit:4;stroke-opacity:1;stroke-dasharray:none" />
    <path
       d="m 207.69178,456.77445 c 0,0 -13.395,-10.79375 -34.5675,-21.10375 -23.525,-11.42625 -36.52125,-14.63375 -36.52125,-14.63375"
       id="path4001"
       style="fill:none;stroke:#42291b;stroke-width:5.05000019;stroke-linecap:butt;stroke-linejoin:miter;stroke-miterlimit:4;stroke-opacity:1;stroke-dasharray:none" />
    <path
       d="m 139.44803,478.84445 c 0,0 23.66,3.01375 34.4525,2.81 10.795,-0.22625 31.87125,-2.265 31.87125,-2.265"
       id="path4005"
       style="fill:none;stroke:#42291b;stroke-width:5.05000019;stroke-linecap:butt;stroke-linejoin:miter;stroke-miterlimit:4;stroke-opacity:1;stroke-dasharray:none" />
    <path
       d="m 243.38928,640.30695 c 0,0 15.99875,-11.38375 30.38125,-21.25625 14.42625,-9.895 36.56125,-32.53 7.83,-43.9775 -28.7225,-11.42125 -43.68,7.725 -67.51625,26.18375 -12.86625,9.94375 -31.26,14.48 -26.28375,34.95625 5.04375,20.48 25.28375,78.42875 65.97375,61.1775 40.68875,-17.245 -8.46625,-53.3425 -15.35,-65.0375"
       id="path4009"
       style="fill:none;stroke:#42291b;stroke-width:5.05000019;stroke-linecap:butt;stroke-linejoin:miter;stroke-miterlimit:4;stroke-opacity:1;stroke-dasharray:none" />
    <path
       d="m 374.55678,595.11445 c 0,0 10.7175,6.10125 20.6875,16.85375 10.0325,10.78875 18.1975,32.74375 38.70625,26.21375 20.525,-6.55625 33.97125,-34.0125 56.615,-11.8575 22.59625,22.155 -22.64375,47.585 -39.54875,55.32875 -16.93625,7.70375 -31.74625,14.93875 -51.2775,-6.0375 -19.54875,-20.9925 -26.63375,-22.225 -26.63375,-22.225"
       id="path4013"
       style="fill:none;stroke:#42291b;stroke-width:0.98500001;stroke-linecap:butt;stroke-linejoin:miter;stroke-miterlimit:4;stroke-opacity:1;stroke-dasharray:none" />
    <path
       d="m 380.87803,635.39695 c 0,0 -8.87125,20.7725 -16.74,31.6475 -9.4425,12.9925 -16.75125,21.35 -23.805,26.38"
       id="path4017"
       style="fill:none;stroke:#42291b;stroke-width:1.25;stroke-linecap:butt;stroke-linejoin:miter;stroke-miterlimit:4;stroke-opacity:1;stroke-dasharray:none" />
    <path
       d="m 319.25053,672.40695 c 0,0 42.5575,46.19625 61.9775,64.54875 11.88625,11.2125 37.62375,34.87625 37.62375,34.87625 0,0 97.03375,-13.14625 83.905,42.96625 -3.8775,16.56625 -112.93625,-0.035 -112.93625,-0.035 0,0 -40.4675,-35.18375 -67.32875,-63.725 -32.66875,-34.72125 -60.17125,-57.9125 -60.17125,-57.9125"
       id="path4021"
       style="fill:none;stroke:#42291b;stroke-width:1.25;stroke-linecap:butt;stroke-linejoin:miter;stroke-miterlimit:4;stroke-opacity:1;stroke-dasharray:none" />
    <path
       d="m 188.61553,762.20945 c -0.1625,3.7975 39.04,46.14625 -2.33875,57.8625 -31.19625,8.8075 -85.74,-80.2425 -60.36625,-95.52125 15.56625,-9.33 29.46,1.01875 29.46,1.01875 0,0 20.29375,-5.49375 35.16625,-12.295 25.28875,-11.6075 34.1025,-18.7125 34.1025,-18.7125"
       id="path4025"
       style="fill:none;stroke:#42291b;stroke-width:0.98500001;stroke-linecap:butt;stroke-linejoin:miter;stroke-miterlimit:4;stroke-opacity:1;stroke-dasharray:none" />
    <path
       d="m 290.04303,719.07195 c 0,0 -59.93375,38.875 -110.41875,46.96"
       id="path4029"
       style="fill:none;stroke:#42291b;stroke-width:0.98500001;stroke-linecap:butt;stroke-linejoin:miter;stroke-miterlimit:4;stroke-opacity:1;stroke-dasharray:none" />
    <path
       d="m 200.70553,671.20945 c -13.95125,-2.65375 -30.36875,-8.70125 -44.0025,-21.84625 -30.46625,-29.505 -38.805,-76.58875 -61.51875,-65.3575 -22.71375,11.26375 -24.97875,86.81875 44.24625,112.58625 23.83875,8.92875 45.87625,9.74625 63.7625,9.91625"
       id="path4033"
       style="fill:none;stroke:#42291b;stroke-width:0.98500001;stroke-linecap:butt;stroke-linejoin:miter;stroke-miterlimit:4;stroke-opacity:1;stroke-dasharray:none" />
    <path
       d="m 550.51553,461.9882 c 0,0 26.42625,-3.30875 39.96875,-7.49625 15.83625,-4.90875 26.73875,-13.76125 26.73875,-13.76125"
       id="path4037"
       style="fill:none;stroke:#42291b;stroke-width:5.05000019;stroke-linecap:butt;stroke-linejoin:miter;stroke-miterlimit:4;stroke-opacity:1;stroke-dasharray:none" />
    <path
       d="m 551.94053,496.4432 c 0,0 15.49,6.95125 31.64625,9.17625 15.96875,2.15125 26.82625,1.59125 26.82625,1.59125"
       id="path4041"
       style="fill:none;stroke:#42291b;stroke-width:5.05000019;stroke-linecap:butt;stroke-linejoin:miter;stroke-miterlimit:4;stroke-opacity:1;stroke-dasharray:none" />
    <path
       d="m 348.12053,481.07445 c 0,0 59.115,19.8 81.31375,25.4825 22.145,5.63375 62.27625,11.98125 62.27625,11.98125 0,0 -48.25875,57.50375 -101.64,40.52375 -53.3825,-16.97125 -51.1825,-50.8975 -41.95,-77.9875 z"
       id="path4045"
       style="fill:none;stroke:#42291b;stroke-width:5.05000019;stroke-linecap:butt;stroke-linejoin:miter;stroke-miterlimit:4;stroke-opacity:1;stroke-dasharray:none" />
    <path
       d="m 561.91178,560.7682 c 0.01,0 0.01,0 0.01,0 0,0 0,0 -0.01,0"
       id="path4049"
       style="fill:#42291b;fill-opacity:1;fill-rule:nonzero;stroke:none" />
  </g>
</svg>
