<?xml version="1.0" encoding="UTF-8" standalone="no"?>
<!-- Created with Inkscape (http://www.inkscape.org/) -->
<svg id="svg2985" xmlns:rdf="http://www.w3.org/1999/02/22-rdf-syntax-ns#" xmlns="http://www.w3.org/2000/svg" xml:space="preserve" height="200" width="200" version="1.1" xmlns:cc="http://creativecommons.org/ns#" xmlns:xlink="http://www.w3.org/1999/xlink" xmlns:dc="http://purl.org/dc/elements/1.1/"><title id="title2998">SQLite</title><metadata id="metadata2991"><rdf:RDF><cc:Work rdf:about=""><dc:format>image/svg+xml</dc:format><dc:type rdf:resource="http://purl.org/dc/dcmitype/StillImage"/><dc:title>SQLite</dc:title></cc:Work></rdf:RDF></metadata><defs id="defs2989"><linearGradient id="linearGradient2995" y2="-9.1083" gradientUnits="userSpaceOnUse" x2="-6.741" gradientTransform="matrix(-2.4997e-7 5.7139 -5.7139 -2.4997e-7 -10.316 155.72)" y1="-9.1083" x1="-15.615"><stop id="stop3029" stop-color="#97d9f6" offset="0"/><stop id="stop3031" stop-color="#0f80cc" offset=".92024"/><stop id="stop3033" stop-color="#0f80cc" offset="1"/></linearGradient></defs><g><path id="SQLite" d="m78.415 99.52c-2.399 0-4.3496 0.71011-5.8451 2.1297-1.4955 1.4208-2.2541 3.2833-2.2541 5.5652 0 1.1826 0.18841 2.2609 0.55964 3.249 0.37122 0.99006 0.94889 1.9072 1.7255 2.736 0.77665 0.82951 2.3312 1.9563 4.6481 3.3889 2.8429 1.7355 4.7034 3.1441 5.5963 4.2439 0.89355 1.0989 1.3369 2.2505 1.3369 3.4511 0 1.6075-0.52916 2.8907-1.6167 3.8553-1.0894 0.965-2.5463 1.4457-4.3527 1.4457-1.9052 0-3.5649-0.67163-4.9901-2.0054-1.4252-1.3356-2.1446-3.1023-2.1608-5.3165h-0.88609v8.037h0.88609c0.27049-0.76105 0.64482-1.1504 1.1348-1.1504 0.23567 0 0.78784 0.16254 1.6478 0.46636 2.0924 0.7445 3.8105 1.1037 5.1611 1.1037 2.3275 0 4.3142-0.81514 5.9694-2.4717 1.6528-1.6558 2.4873-3.6532 2.4873-5.985 0-1.8081-0.55093-3.4168-1.6323-4.8191-1.0813-1.4039-3.1843-3.037-6.327-4.9123-2.7043-1.6248-4.4597-2.948-5.2699-3.9796-0.81147-1.0301-1.2281-2.1696-1.2281-3.42 0-1.3524 0.49683-2.4388 1.4768-3.249 0.97998-0.81084 2.264-1.2125 3.8708-1.2125 1.8082 0 3.3155 0.53662 4.5082 1.6167 1.1914 1.082 1.8804 2.5813 2.0831 4.5082h0.88609v-6.9643h-0.82391c-0.10073 0.35506-0.19401 0.58202-0.27982 0.68399-0.08332 0.10136-0.24375 0.15546-0.48191 0.15546-0.28666 0-0.79779-0.12063-1.5234-0.35754-1.5545-0.52357-2.9878-0.79281-4.3061-0.79281zm28.961 0c-2.9232 0-5.577 0.68896-7.9748 2.0675-2.4015 1.3761-4.3023 3.2869-5.7052 5.7207-1.4022 2.4336-2.0986 5.0182-2.0986 7.7727 0 3.7005 1.2113 6.9974 3.6532 9.8869 2.4431 2.8878 5.3706 4.6872 8.7676 5.3787 0.77665 0.40468 1.8878 1.4493 3.3423 3.1402 1.6391 1.9082 3.0258 3.2844 4.1662 4.104 1.1392 0.81998 2.3691 1.421 3.6687 1.8188 1.3008 0.39616 2.7074 0.59072 4.2283 0.59072 1.8418 0 3.4909-0.32011 4.9434-0.97936l-0.32645-0.80836c-0.84319 0.30413-1.7423 0.45081-2.6894 0.45081-1.2853 0-2.5843-0.42382-3.8863-1.2747-1.3002-0.85301-2.9263-2.4805-4.8657-4.8813-0.91158-1.1504-1.5408-1.8761-1.8965-2.1608 3.7166-0.72579 6.7728-2.5271 9.1562-5.4098 2.3828-2.8815 3.5754-6.1701 3.5754-9.8558 0-4.3763-1.557-8.0542-4.6481-11.053-3.0935-2.9989-6.8978-4.5082-11.41-4.5082zm18.079 0 0.0466 0.94826c1.9463 0 3.0363 0.57331 3.2801 1.7255 0.0908 0.41226 0.13244 1.1735 0.13991 2.2696l-0.0155 20.971c-0.0162 1.5662-0.2394 2.5662-0.66844 3.0002-0.42968 0.43092-1.156 0.70079-2.2074 0.80837l-0.0466 0.94826h19.401l0.49745-4.7569h-0.88609c-0.25308 1.2959-0.83323 2.2242-1.7566 2.7515-0.92589 0.53122-2.5631 0.79281-4.9279 0.79281h-1.8344c-2.1279 0-3.3591-0.76925-3.6843-2.3163-0.0671-0.30606-0.0902-0.63419-0.0933-0.9949l0.0778-21.204c-0.0005-1.5637 0.19711-2.6116 0.60627-3.1246 0.4135-0.51114 1.1591-0.79718 2.2385-0.87055l-0.0466-0.94826h-10.12zm-17.768 1.1504c3.2969 0 5.9887 1.2985 8.0681 3.9174 2.0787 2.6199 3.1091 6.2106 3.1091 10.757 0 4.3085-1.0453 7.7583-3.1402 10.353-2.0949 2.5941-4.8831 3.8864-8.3479 3.8864-3.3286 0-6.0279-1.3326-8.0991-4.0107-2.0694-2.6782-3.0935-6.1552-3.0935-10.431 0-4.3938 1.0366-7.9109 3.1246-10.54 2.0868-2.626 4.8812-3.933 8.379-3.933zm44.615 4.5082c-0.4732 0-0.83386 0.15982-1.1037 0.48191-0.27608 0.32086-0.36065 0.70949-0.26427 1.1814 0.0933 0.45784 0.35133 0.8591 0.76172 1.197 0.40792 0.33757 0.84816 0.513 1.3214 0.513 0.45766 0 0.80649-0.17541 1.0571-0.513 0.25059-0.3379 0.32708-0.73916 0.23318-1.197-0.0964-0.47196-0.34574-0.86059-0.73064-1.1814-0.38925-0.32209-0.81706-0.48191-1.2747-0.48191zm12.794 3.2179c-0.80401 3.093-2.547 4.7668-5.2232 5.0367l0.031 0.88609h3.1246l-0.0622 10.478c0.005 1.7913 0.0597 2.984 0.18655 3.591 0.30779 1.4532 1.2567 2.1919 2.8448 2.1919 2.2976 0 4.7078-1.3996 7.2286-4.1972l-0.76172-0.6529c-1.82 1.8424-3.4293 2.7671-4.8346 2.7671-0.8637 0-1.3991-0.49671-1.6012-1.4768-0.0553-0.23804-0.0778-0.51617-0.0778-0.83945l0.031-11.861h4.7724l-0.0466-1.4146h-4.7102v-4.5082h-0.90164zm18.452 3.9485c-2.6694 0-4.8408 1.2959-6.529 3.8708-1.6795 2.5793-2.1994 5.437-1.539 8.581 0.38863 1.8416 1.1628 3.269 2.3474 4.275 1.1827 1.0056 2.6831 1.5079 4.4771 1.5079 1.6702 0 3.9958-0.42289 4.9745-1.2747 0.98123-0.85133 1.8853-2.2305 2.7204-4.1195l-0.66845-0.69954c-1.3319 2.4506-4.02 3.6842-6.0472 3.6842-2.787 0-4.4939-1.529-5.13-4.5703-0.0827-0.3882-0.14427-0.80525-0.18655-1.2436 3.3155-0.52494 5.8283-1.4545 7.524-2.7982 1.6944-1.3444 3.3957-2.7695 3.078-4.275-0.18904-0.89461-0.65354-1.598-1.368-2.1297-0.72379-0.53146-2.6029-0.80837-3.6532-0.80837zm-29.179 0.10882-5.7518 1.3214v1.026l1.9898-0.24873c0.96381 0 1.5309 0.43646 1.71 1.3058 0.0603 0.29095 0.0982 0.69954 0.10882 1.2125l-0.0622 9.405c-0.0162 1.3014-0.16043 2.058-0.45082 2.2852-0.29288 0.22759-1.0652 0.342-2.3163 0.342l-0.0311 0.88609h9.1252l-0.0155-0.88609c-1.2679 0-2.0899-0.10004-2.4562-0.29536-0.36002-0.19407-0.60813-0.54725-0.71508-1.0882-0.0827-0.38982-0.11877-1.0615-0.12436-1.9898l0.031-13.276h-1.0415zm27.717 1.7411c0.55528 0 1.0919 0.21446 1.6323 0.63736 0.5329 0.42141 0.85749 0.89 0.96381 1.3991 0.52047 2.5004-1.6963 4.229-6.6845 5.1921-0.1424-1.8232 0.17348-3.4783 0.97935-4.9745 0.79966-1.4948 1.8412-2.2541 3.1091-2.2541z" fill="#003b57"/><path id="solid-background" d="m65.531 63.612h-49.499c-3.318 0-6.032 2.715-6.032 6.033v54.589c0 3.3172 2.7143 6.0316 6.0319 6.0316h32.602c-0.371-16.22 5.169-47.698 16.897-66.648z" fill="#0f80cc"/><path id="gradient-background" d="m63.733 65.372h-47.701c-2.3556 0-4.2726 1.9164-4.2726 4.2725v50.606c10.803-4.1463 27.018-7.7239 38.229-7.5614 2.2529-11.78 8.8743-34.867 13.745-47.317z" fill="url(#linearGradient2995)"/><path id="feather" d="m77.077 61.826c-3.3901-3.0233-7.4947-1.8089-11.546 1.7865-0.6013 0.53414-1.2013 1.1267-1.7983 1.7597-6.9301 7.3517-13.363 20.969-15.361 31.369 0.77851 1.5788 1.3866 3.5935 1.7871 5.1325 0.1026 0.39486 0.19525 0.76546 0.26925 1.0807 0.17597 0.74611 0.27049 1.23 0.27049 1.23s-0.06218-0.23511-0.31713-0.97438c-0.0485-0.14178-0.1026-0.29661-0.16665-0.4788-0.02736-0.0752-0.06529-0.16665-0.10695-0.26427-0.45206-1.0509-1.7025-3.2689-2.2528-4.2346-0.47071 1.3885-0.88671 2.6875-1.2349 3.8627 1.5887 2.9069 2.5569 7.8885 2.5569 7.8885s-0.08394-0.32285-0.48315-1.4496c-0.35444-0.99659-2.1198-4.0896-2.5379-4.8127-0.71534 2.6407-0.99957 4.4236-0.74326 4.8577 0.49764 0.84113 0.97159 2.2924 1.3878 3.8975 0.94018 3.6158 1.5937 8.0176 1.5937 8.0176s0.02114 0.2917 0.05658 0.74058c-0.13058 3.0364-0.05224 6.1846 0.18281 9.0302 0.31153 3.7668 0.8979 7.0027 1.6453 8.7345l0.5074-0.27664c-1.0975-3.412-1.5433-7.8834-1.3481-13.04 0.29536-7.8822 2.1092-17.388 5.4608-27.295 5.6623-14.956 13.518-26.956 20.708-32.686-6.5533 5.9184-15.423 25.076-18.078 32.17-2.9729 7.9443-5.0796 15.399-6.3494 22.542 2.1907-6.6961 9.2738-9.5745 9.2738-9.5745s3.4741-4.2845 7.5339-10.406c-2.4319 0.55467-6.4252 1.5042-7.7627 2.0663-1.973 0.82764-2.5047 1.1099-2.5047 1.1099s6.391-3.8919 11.874-5.6542c7.5408-11.877 15.756-28.749 7.4829-36.129" fill="#003b57"/></g></svg>
