<?xml version="1.0" encoding="UTF-8" standalone="no"?>
<!-- Created with Inkscape (http://www.inkscape.org/) -->

<svg
   xmlns:dc="http://purl.org/dc/elements/1.1/"
   xmlns:cc="http://creativecommons.org/ns#"
   xmlns:rdf="http://www.w3.org/1999/02/22-rdf-syntax-ns#"
   xmlns:svg="http://www.w3.org/2000/svg"
   xmlns="http://www.w3.org/2000/svg"
   xmlns:sodipodi="http://sodipodi.sourceforge.net/DTD/sodipodi-0.dtd"
   xmlns:inkscape="http://www.inkscape.org/namespaces/inkscape"
   width="50mm"
   height="50mm"
   viewBox="0 0 177.16535 177.16536"
   id="svg2"
   version="1.1"
   inkscape:version="0.91 r13725"
   sodipodi:docname="Swiki.svg">
  <defs
     id="defs4" />
  <sodipodi:namedview
     id="base"
     pagecolor="#ffffff"
     bordercolor="#666666"
     borderopacity="1.0"
     inkscape:pageopacity="0.0"
     inkscape:pageshadow="2"
     inkscape:zoom="1.979899"
     inkscape:cx="157.2813"
     inkscape:cy="76.487606"
     inkscape:document-units="px"
     inkscape:current-layer="layer1"
     showgrid="false"
     inkscape:window-width="1707"
     inkscape:window-height="906"
     inkscape:window-x="-8"
     inkscape:window-y="23"
     inkscape:window-maximized="1"
     fit-margin-top="0"
     fit-margin-left="0"
     fit-margin-right="0"
     fit-margin-bottom="0" />
  <metadata
     id="metadata7">
    <rdf:RDF>
      <cc:Work
         rdf:about="">
        <dc:format>image/svg+xml</dc:format>
        <dc:type
           rdf:resource="http://purl.org/dc/dcmitype/StillImage" />
        <dc:title></dc:title>
      </cc:Work>
    </rdf:RDF>
  </metadata>
  <g
     inkscape:label="Ebene 1"
     inkscape:groupmode="layer"
     id="layer1"
     transform="translate(-2.7461033,16.640021)">
    <g
       id="g3371"
       transform="translate(-147.48227,139.90613)">
      <g
         id="g3377"
         transform="translate(-49.237503,-430.51932)">
        <path
           sodipodi:nodetypes="cssssssssssssssssssssccssssssss"
           inkscape:connector-curvature="0"
           id="path3375"
           d="m 276.8858,437.05863 c -15.70374,-3.4416 -13.93299,-12.99819 -10.14103,-33.23458 1.95433,-10.4296 -0.42574,-8.8098 -8.18722,-2.5592 -18.00954,14.50374 -24.10173,16.4547 -35.27898,1.64416 -16.10272,-21.33711 -15.28162,-26.53199 9.34324,-35.14498 3.025,-1.05805 13.58122,-4.96807 13.58122,-5.60236 0,-0.63429 -9.04099,-5.55447 -12.06599,-6.61252 -24.62486,-8.61299 -26.45612,-14.81802 -10.3534,-36.15513 11.18744,-14.82404 15.99862,-12.30794 33.72385,2.47948 7.1723,5.98356 10.68276,1.45913 8.7322,-8.95038 -4.45598,-23.78001 8.4298,-31.72214 33.00759,-26.79317 14.18317,2.84438 11.04645,9.45067 7.72961,35.83754 -0.73139,5.81849 2.54057,4.82322 8.97528,-0.64352 18.63326,-15.83031 22.32646,-19.28088 36.37518,1.29199 12.166,17.81583 6.37581,27.21592 -15.74615,34.95348 -3.025,1.05805 -11.56091,3.95792 -11.56091,4.59221 0,0.63429 7.52576,3.02908 10.55076,4.08713 22.12196,7.73756 27.99354,10.71959 20.29183,28.89256 -9.7208,22.93721 -21.78253,22.17306 -40.41579,6.34275 -6.43471,-5.46675 -9.20159,-2.92647 -8.4702,2.89202 3.2521,25.87181 5.74821,28.14206 -11.38157,31.74542 -8.34768,1.75599 -9.8952,2.25306 -18.20444,0.43198 z m 2.84823,-84.96106 c 0,-1.50309 -1.29063,-4.94098 -5.25,-4.22669 -1.47297,0.26573 -1.43411,7.05397 -0.14623,8.34186 1.13345,1.13344 5.39623,-0.35596 5.39623,-4.11517 z m 26.48664,2.5485 c 0.18908,-0.97534 -0.32699,-6.55126 -0.92857,-7.15284 -1.6336,-1.6336 -6.30064,4.37898 -5.4654,7.0106 0.78532,2.47432 5.8849,2.76822 6.39397,0.14224 z"
           style="fill:#f6c344" />
        <path
           inkscape:connector-curvature="0"
           id="path3373"
           d="m 276.62689,439.2092 c -12.23766,-3.12621 -14.50251,-5.61656 -14.49442,-15.93747 0.003,-3.91333 0.40957,-8.69014 0.90333,-10.61514 3.40225,-13.26393 2.67083,-13.95548 -6.57221,-6.21394 -17.52378,14.67708 -25.29989,14.02891 -36.63887,-3.05398 -13.42088,-20.21941 -9.71244,-30.4669 13.81259,-38.16813 9.57292,-3.13383 9.57292,-3.99407 0,-7.1279 -23.52503,-7.70123 -27.23347,-17.94872 -13.81259,-38.16813 11.33898,-17.08289 19.11509,-17.73106 36.63887,-3.05398 9.24304,7.74154 9.97446,7.04999 6.57221,-6.21394 -4.54635,-17.72436 1.57799,-25.87294 20.81504,-27.69488 22.97743,-2.17618 33.21727,8.97906 27.27178,29.70977 -2.85457,9.9533 -1.3422,10.70002 7.30904,3.60874 17.10457,-14.02033 24.78865,-13.24241 35.9974,3.64429 13.42088,20.21941 9.71244,30.4669 -13.81259,38.16813 -9.57292,3.13383 -9.57292,3.99407 0,7.1279 23.52503,7.70123 27.23347,17.94872 13.81259,38.16813 -11.20875,16.8867 -18.89283,17.66462 -35.9974,3.64429 -8.65124,-7.09128 -10.16361,-6.34456 -7.30904,3.60873 2.25155,7.85069 1.73073,19.61168 -0.99762,22.52817 -6.07475,6.49365 -21.10922,9.2042 -33.49811,6.03934 z m 23.76106,-5.12589 c 8.95028,-3.04967 9.96021,-10.768 4.2894,-32.78174 -3.56945,-13.85639 -1.66267,-15.40188 7.4837,-6.06573 21.27234,21.71372 30.76359,21.91539 41.32998,0.87818 8.99635,-17.91133 5.54466,-21.41492 -31.61414,-32.08948 -1.42129,-0.4083 -2.67233,-4.36795 -1.38004,-4.36795 7.64403,0 35.04402,-11.8802 36.40514,-15.78468 3.56984,-10.24046 -11.06912,-33.21532 -21.16389,-33.21532 -2.7963,0 -14.79058,8.74955 -23.93017,17.45649 -9.34447,8.90214 -10.69735,7.74451 -7.13058,-6.10147 6.68837,-25.96385 4.77009,-31.79682 -11.33147,-34.45593 -23.39839,-3.86416 -29.98871,3.80057 -24.59172,28.60091 4.37226,20.0915 3.38926,21.69045 -7.06224,11.48747 -21.75205,-21.23479 -30.7386,-21.4166 -40.77958,-0.82503 -9.02854,18.51528 -5.91049,21.73293 31.46455,32.46961 1.42129,0.4083 2.67233,4.36795 1.38004,4.36795 -7.73841,0 -35.0244,11.8239 -36.40137,15.77389 -3.56261,10.2197 11.05551,33.22611 21.11166,33.22611 3.06264,0 12.97651,-7.21634 22.32735,-16.25215 11.41283,-11.02834 12.40711,-9.68522 7.95959,10.75215 -3.44329,15.82267 -3.45024,20.83279 -0.0333,23.9995 5.50747,5.10415 21.05914,6.54171 31.66709,2.92722 z M 270.80223,377.9986 c -2.40742,-2.40742 2.15776,-3.34201 16.32466,-3.34201 14.1669,0 18.73208,0.93459 16.32466,3.34201 -0.85919,0.85918 -31.79013,0.85918 -32.64932,0 z m -0.41902,-14.37083 c -1.23402,-0.49613 -3.14484,-2.38011 -4.24626,-4.18662 -6.62532,-10.86661 5.37915,-23.5492 14.06686,-14.86148 8.04639,8.04638 0.2805,23.10915 -9.8206,19.0481 z m 8.54424,-11.87703 c -0.37029,-3.17496 -3.37469,-4.0113 -4.27052,-1.18879 -0.35246,1.1105 -0.13453,2.96515 0.4843,4.12143 1.51041,2.82223 4.21324,0.72873 3.78622,-2.93264 z m 17.08749,11.44663 c -5.80608,-3.24539 -6.90693,-13.67574 -1.96497,-18.6177 9.45603,-9.45604 21.74454,6.38944 12.81978,16.53053 -2.76946,3.1469 -7.37473,4.0324 -10.85481,2.08717 z m 9.11195,-11.17312 c 0,-2.80672 -0.35235,-3.44749 -1.75,-3.18243 -2.12596,0.40317 -2.99854,5.73411 -1.12782,6.89028 2.00244,1.23758 2.87782,0.10971 2.87782,-3.70785 z"
           style="fill:#000000" />
      </g>
    </g>
  </g>
</svg>
